<svg height='300px' width='300px'  fill="#000000" xmlns="http://www.w3.org/2000/svg" xmlns:xlink="http://www.w3.org/1999/xlink" version="1.1" x="0px" y="0px" viewBox="0 0 208.014 229.183" style="enable-background:new 0 0 208.014 229.183;" xml:space="preserve"><g><path d="M68.195,216.82c0,6.828,5.537,12.363,12.365,12.363c6.826,0,12.363-5.535,12.363-12.363v-70.531   c-7.934-0.045-16.189-1.153-24.729-3.315V216.82z"></path><path d="M97.695,216.82c0,6.828,5.537,12.363,12.365,12.363c6.826,0,12.363-5.535,12.363-12.363v-76.201   c-7.564,3.23-15.9,5.123-24.729,5.572V216.82z"></path><ellipse transform="matrix(0.9739 -0.2268 0.2268 0.9739 -2.6211 22.1859)" cx="95.241" cy="22.5" rx="22.495" ry="22.495"></ellipse><path d="M159.209,109.003c3.211,0,6.24-1.947,7.465-5.122c0.971-2.516,0.578-5.219-0.807-7.307   c-2.395,3.768-5.182,7.91-8.338,12.242C158.09,108.936,158.652,109.003,159.209,109.003z"></path><path d="M39.057,116.302c-4.289-2.314-8.742-3.475-13.037-3.471c-7.592-0.02-14.357,3.639-18.883,9.137   C2.576,127.474,0.006,134.8,0,142.756c-0.004,7.392,2.252,15.335,7.209,22.808c1.152,1.743,3.062,2.688,5.008,2.688   c1.137,0,2.287-0.322,3.307-0.998c2.762-1.83,3.519-5.553,1.689-8.314c-3.725-5.633-5.209-11.211-5.211-16.183   c-0.006-5.356,1.758-9.991,4.367-13.12c2.648-3.139,5.893-4.785,9.65-4.805c2.158,0.003,4.59,0.558,7.346,2.035   c3.256,1.752,6.461,3.349,9.627,4.826c0.094,0.774,0.197,1.558,0.305,2.348c0.188,1.38,0.387,2.775,0.609,4.201   c0.619,3.946,4.024,6.762,7.895,6.762c0.412,0,0.83-0.032,1.25-0.097c2.762-0.434,4.967-2.237,6.043-4.607   c0.275-0.607,0.473-1.251,0.59-1.92c2.881,0.957,5.721,1.802,8.512,2.521c8.695,2.241,16.951,3.343,24.729,3.39   c0.156,0.001,0.318,0.009,0.475,0.009c1.451,0.003,2.881-0.041,4.297-0.113c9.016-0.462,17.314-2.447,24.729-5.732   c8.203-3.635,15.322-8.853,21.102-15.38c4.455-5.012,8.471-10.083,12.021-14.928c3.428-4.677,6.422-9.145,8.949-13.141   c3.102-4.905,5.502-9.104,7.148-12.116c8.186,1.835,16.94-1.785,21.26-9.473c0.303-0.539,0.57-1.089,0.816-1.643l1.824,1.024   l9.145-16.272l-5.957-3.348l8.982-15.982c0.631-1.123,0.232-2.546-0.891-3.178c-1.123-0.631-2.547-0.232-3.178,0.892l-8.98,15.981   l-17.438-9.798l8.982-15.983c0.631-1.123,0.232-2.546-0.891-3.177c-1.123-0.631-2.547-0.232-3.178,0.891l-8.98,15.982l-5.957-3.348   l-9.146,16.273l1.824,1.025c-0.344,0.498-0.674,1.013-0.979,1.552c-4.178,7.434-2.939,16.422,2.41,22.467   c-1.662,3.054-4.27,7.608-7.689,12.949c-2.596,4.053-5.668,8.558-9.17,13.229c-2.996,3.995-6.297,8.102-9.895,12.141   c-3.508,3.919-7.551,7.255-12.137,9.923c-0.047,0.027-0.092,0.056-0.137,0.083c-6.926,3.999-15.104,6.454-24.592,7.044   c-1.406,0.088-2.832,0.149-4.297,0.153c-0.156,0-0.318-0.008-0.475-0.009c-7.496-0.045-15.746-1.243-24.695-3.811   c-0.012-0.003-0.023-0.007-0.033-0.01c-3.186-0.915-6.459-2.008-9.816-3.278c-0.07-0.741-0.139-1.478-0.197-2.2   c-0.299-3.746-0.439-7.247-0.439-10.507c0.041-21.107,5.615-32.134,10.453-38.109v34.507v17.526   c8.666,2.539,16.926,3.836,24.729,3.884c0.158,0.001,0.318,0.01,0.475,0.01c1.461-0.004,2.887-0.067,4.297-0.157   c9.318-0.596,17.541-3.06,24.592-7.37c0.045-0.028,0.092-0.053,0.137-0.081v-13.812c0-0.593-0.057-1.171-0.137-1.742V85.895   c5.104,5.45,11.807,11.123,20.4,16.073c3.516-4.68,6.59-9.187,9.166-13.2c-10.156-5.608-17.014-12.32-21.58-18.106   c-2.973-3.772-4.949-7.146-6.152-9.504c-0.604-1.179-1.012-2.102-1.258-2.691c-0.123-0.295-0.203-0.507-0.25-0.626   c-0.012-0.036-0.023-0.063-0.029-0.082c0-0.002-0.002-0.005-0.002-0.007c-0.414-1.21-1.098-2.251-1.949-3.093   c-1.416-1.799-3.607-2.959-6.074-2.959H75.924c-0.646,0-1.269,0.088-1.871,0.237c-0.705,0.019-1.418,0.124-2.127,0.34l-0.002-0.002   c-1.037,0.312-8.715,2.913-16.117,11.972c-7.426,9.038-14.105,24.289-14.064,48.236c0,0.98,0.012,1.977,0.035,2.988   c0.016,0.754,0.043,1.523,0.072,2.294C40.922,117.285,39.994,116.808,39.057,116.302z"></path></g></svg>