<svg height='300px' width='300px'  fill="#000000" xmlns="http://www.w3.org/2000/svg" xmlns:xlink="http://www.w3.org/1999/xlink" version="1.1" x="0px" y="0px" viewBox="0 0 512 512" enable-background="new 0 0 512 512" xml:space="preserve"><g><g><g><g><g><path d="M435.76,176.106H76.24c-2.208,0-3.995-1.786-3.995-3.994v-15.979c0-2.208,1.787-3.995,3.995-3.995h359.52       c2.208,0,3.995,1.787,3.995,3.995v15.979C439.755,174.32,437.968,176.106,435.76,176.106z M80.235,168.117h351.531v-7.989       H80.235V168.117z"></path></g></g></g><g><g><g><path d="M435.76,192.086H76.24c-2.208,0-3.995-1.787-3.995-3.995s1.787-3.994,3.995-3.994h359.52       c2.208,0,3.995,1.786,3.995,3.994S437.968,192.086,435.76,192.086z"></path></g></g></g><g><g><g><path d="M435.76,208.064H76.24c-2.208,0-3.995-1.787-3.995-3.995s1.787-3.994,3.995-3.994h359.52       c2.208,0,3.995,1.786,3.995,3.994S437.968,208.064,435.76,208.064z"></path></g></g></g><g><g><g><path d="M435.76,455.733H76.24c-2.208,0-3.995-1.786-3.995-3.994V220.048c0-2.208,1.787-3.994,3.995-3.994h359.52       c2.208,0,3.995,1.786,3.995,3.994v231.691C439.755,453.947,437.968,455.733,435.76,455.733z M80.235,447.744h351.531V224.043       H80.235V447.744z"></path></g></g></g><g><g><g><g><path d="M116.187,439.755c-2.208,0-3.994-1.786-3.994-3.995V236.027c0-2.208,1.786-3.995,3.994-3.995s3.995,1.787,3.995,3.995        V435.76C120.182,437.969,118.395,439.755,116.187,439.755z"></path></g></g></g><g><g><g><path d="M156.134,439.755c-2.208,0-3.995-1.786-3.995-3.995V236.027c0-2.208,1.787-3.995,3.995-3.995s3.994,1.787,3.994,3.995        V435.76C160.128,437.969,158.342,439.755,156.134,439.755z"></path></g></g></g><g><g><g><path d="M196.08,439.755c-2.208,0-3.995-1.786-3.995-3.995V236.027c0-2.208,1.787-3.995,3.995-3.995s3.995,1.787,3.995,3.995        V435.76C200.075,437.969,198.288,439.755,196.08,439.755z"></path></g></g></g><g><g><g><path d="M236.027,439.755c-2.208,0-3.995-1.786-3.995-3.995V236.027c0-2.208,1.787-3.995,3.995-3.995s3.995,1.787,3.995,3.995        V435.76C240.021,437.969,238.235,439.755,236.027,439.755z"></path></g></g></g><g><g><g><path d="M275.974,439.755c-2.208,0-3.995-1.786-3.995-3.995V236.027c0-2.208,1.787-3.995,3.995-3.995s3.994,1.787,3.994,3.995        V435.76C279.968,437.969,278.182,439.755,275.974,439.755z"></path></g></g></g><g><g><g><path d="M315.92,439.755c-2.208,0-3.994-1.786-3.994-3.995V236.027c0-2.208,1.786-3.995,3.994-3.995s3.995,1.787,3.995,3.995        V435.76C319.915,437.969,318.128,439.755,315.92,439.755z"></path></g></g></g><g><g><g><path d="M355.867,439.755c-2.209,0-3.995-1.786-3.995-3.995V236.027c0-2.208,1.786-3.995,3.995-3.995        c2.207,0,3.994,1.787,3.994,3.995V435.76C359.861,437.969,358.074,439.755,355.867,439.755z"></path></g></g></g><g><g><g><path d="M395.813,439.755c-2.208,0-3.995-1.786-3.995-3.995V236.027c0-2.208,1.787-3.995,3.995-3.995s3.995,1.787,3.995,3.995        V435.76C399.809,437.969,398.021,439.755,395.813,439.755z"></path></g></g></g></g><g><g><g><path d="M116.187,208.064c-2.208,0-3.994-1.787-3.994-3.995v-15.979c0-2.208,1.786-3.994,3.994-3.994s3.995,1.786,3.995,3.994       v15.979C120.182,206.277,118.395,208.064,116.187,208.064z"></path></g></g></g><g><g><g><path d="M156.134,208.064c-2.208,0-3.995-1.787-3.995-3.995v-15.979c0-2.208,1.787-3.994,3.995-3.994s3.994,1.786,3.994,3.994       v15.979C160.128,206.277,158.342,208.064,156.134,208.064z"></path></g></g></g><g><g><g><path d="M196.08,208.064c-2.208,0-3.995-1.787-3.995-3.995v-15.979c0-2.208,1.787-3.994,3.995-3.994s3.995,1.786,3.995,3.994       v15.979C200.075,206.277,198.288,208.064,196.08,208.064z"></path></g></g></g><g><g><g><path d="M236.027,208.064c-2.208,0-3.995-1.787-3.995-3.995v-15.979c0-2.208,1.787-3.994,3.995-3.994s3.995,1.786,3.995,3.994       v15.979C240.021,206.277,238.235,208.064,236.027,208.064z"></path></g></g></g><g><g><g><path d="M275.974,208.064c-2.208,0-3.995-1.787-3.995-3.995v-15.979c0-2.208,1.787-3.994,3.995-3.994s3.994,1.786,3.994,3.994       v15.979C279.968,206.277,278.182,208.064,275.974,208.064z"></path></g></g></g><g><g><g><path d="M315.92,208.064c-2.208,0-3.994-1.787-3.994-3.995v-15.979c0-2.208,1.786-3.994,3.994-3.994s3.995,1.786,3.995,3.994       v15.979C319.915,206.277,318.128,208.064,315.92,208.064z"></path></g></g></g><g><g><g><path d="M355.867,208.064c-2.209,0-3.995-1.787-3.995-3.995v-15.979c0-2.208,1.786-3.994,3.995-3.994       c2.207,0,3.994,1.786,3.994,3.994v15.979C359.861,206.277,358.074,208.064,355.867,208.064z"></path></g></g></g><g><g><g><path d="M395.813,208.064c-2.208,0-3.995-1.787-3.995-3.995v-15.979c0-2.208,1.787-3.994,3.995-3.994s3.995,1.786,3.995,3.994       v15.979C399.809,206.277,398.021,208.064,395.813,208.064z"></path></g></g></g></g><g><g><g><path d="M52.272,271.979H4.336c-2.208,0-3.994-1.786-3.994-3.994s1.786-3.994,3.994-3.994h47.937      c2.208,0,3.994,1.786,3.994,3.994S54.48,271.979,52.272,271.979z"></path></g></g></g><g><g><g><path d="M52.272,287.958H4.336c-2.208,0-3.994-1.787-3.994-3.995s1.786-3.994,3.994-3.994h47.937      c2.208,0,3.994,1.786,3.994,3.994S54.48,287.958,52.272,287.958z"></path></g></g></g><g><g><g><path d="M59.599,263.99h-7.326c-2.208,0-3.995-1.787-3.995-3.995S50.064,256,52.272,256h7.326c2.208,0,3.994,1.787,3.994,3.995      S61.806,263.99,59.599,263.99z"></path></g></g></g><g><g><g><path d="M52.272,295.947c-2.208,0-3.995-1.787-3.995-3.995v-31.957c0-2.208,1.787-3.995,3.995-3.995      c2.208,0,3.994,1.787,3.994,3.995v31.957C56.267,294.16,54.48,295.947,52.272,295.947z"></path></g></g></g><g><g><g><path d="M60.262,295.947h-7.989c-2.208,0-3.995-1.787-3.995-3.995s1.787-3.994,3.995-3.994h7.989      c2.208,0,3.994,1.786,3.994,3.994S62.47,295.947,60.262,295.947z"></path></g></g></g><g><g><g><path d="M52.272,391.819H4.336c-2.208,0-3.994-1.787-3.994-3.995s1.786-3.994,3.994-3.994h47.937      c2.208,0,3.994,1.786,3.994,3.994S54.48,391.819,52.272,391.819z"></path></g></g></g><g><g><g><path d="M52.272,407.798H4.336c-2.208,0-3.994-1.787-3.994-3.995s1.786-3.994,3.994-3.994h47.937      c2.208,0,3.994,1.786,3.994,3.994S54.48,407.798,52.272,407.798z"></path></g></g></g><g><g><g><path d="M59.599,383.83h-7.326c-2.208,0-3.995-1.787-3.995-3.995s1.787-3.995,3.995-3.995h7.326      c2.208,0,3.994,1.787,3.994,3.995S61.806,383.83,59.599,383.83z"></path></g></g></g><g><g><g><path d="M52.272,415.787c-2.208,0-3.995-1.787-3.995-3.995v-31.957c0-2.208,1.787-3.995,3.995-3.995      c2.208,0,3.994,1.787,3.994,3.995v31.957C56.267,414,54.48,415.787,52.272,415.787z"></path></g></g></g><g><g><g><path d="M60.262,415.787h-7.989c-2.208,0-3.995-1.787-3.995-3.995s1.787-3.994,3.995-3.994h7.989      c2.208,0,3.994,1.786,3.994,3.994S62.47,415.787,60.262,415.787z"></path></g></g></g><g><g><g><path d="M483.704,407.821h-23.976c-2.209,0-3.995-1.787-3.995-3.995s1.786-3.994,3.995-3.994h23.976      c2.208,0,3.994,1.786,3.994,3.994S485.912,407.821,483.704,407.821z"></path></g></g></g><g><g><g><path d="M483.704,391.843h-23.976c-2.209,0-3.995-1.787-3.995-3.995s1.786-3.994,3.995-3.994h23.976      c2.208,0,3.994,1.786,3.994,3.994S485.912,391.843,483.704,391.843z"></path></g></g></g><g><g><g><path d="M459.729,415.811h-7.326c-2.209,0-3.995-1.787-3.995-3.995s1.786-3.994,3.995-3.994h7.326      c2.207,0,3.994,1.786,3.994,3.994S461.936,415.811,459.729,415.811z"></path></g></g></g><g><g><g><path d="M459.729,415.811c-2.209,0-3.995-1.787-3.995-3.995v-31.957c0-2.208,1.786-3.995,3.995-3.995      c2.207,0,3.994,1.787,3.994,3.995v31.957C463.723,414.023,461.936,415.811,459.729,415.811z"></path></g></g></g><g><g><g><path d="M459.729,383.854h-7.99c-2.207,0-3.994-1.787-3.994-3.995s1.787-3.995,3.994-3.995h7.99      c2.207,0,3.994,1.787,3.994,3.995S461.936,383.854,459.729,383.854z"></path></g></g></g><g><g><g><path d="M483.704,407.813c-2.208,0-3.995-1.787-3.995-3.995s1.787-3.994,3.995-3.994c11.009,0,19.966-8.957,19.966-19.966      c0-2.208,1.786-3.995,3.994-3.995s3.994,1.787,3.994,3.995C511.658,395.275,499.113,407.813,483.704,407.813z"></path></g></g></g><g><g><g><path d="M483.36,391.843c-2.208,0-3.994-1.787-3.994-3.995s1.786-3.994,3.994-3.994c2.388,0,4.33-1.943,4.33-4.33      c0-2.209,1.787-3.995,3.995-3.995s3.994,1.786,3.994,3.995C495.68,386.318,490.156,391.843,483.36,391.843z"></path></g></g></g><g><g><g><path d="M491.686,383.518c-2.208,0-3.995-1.787-3.995-3.994V60.262c0-2.208,1.787-3.995,3.995-3.995s3.994,1.787,3.994,3.995      v319.262C495.68,381.73,493.894,383.518,491.686,383.518z"></path></g></g></g><g><g><g><path d="M507.664,383.854c-2.208,0-3.994-1.787-3.994-3.995V60.262c0-2.208,1.786-3.995,3.994-3.995s3.994,1.787,3.994,3.995      v319.597C511.658,382.066,509.872,383.854,507.664,383.854z"></path></g></g></g><g><g><g><path d="M507.664,224.043h-15.979c-2.208,0-3.995-1.787-3.995-3.995s1.787-3.994,3.995-3.994h15.979      c2.208,0,3.994,1.786,3.994,3.994S509.872,224.043,507.664,224.043z"></path></g></g></g><g><g><g><path d="M507.664,248.011h-15.979c-2.208,0-3.995-1.786-3.995-3.994s1.787-3.995,3.995-3.995h15.979      c2.208,0,3.994,1.787,3.994,3.995S509.872,248.011,507.664,248.011z"></path></g></g></g><g><g><g><path d="M467.718,248.011c-0.882,0-1.748-0.288-2.466-0.851c-0.968-0.757-1.529-1.911-1.529-3.144v-23.969      c0-1.232,0.562-2.395,1.537-3.151s2.255-1.015,3.425-0.726l15.979,4.01c2.145,0.538,3.448,2.708,2.902,4.854      c-0.531,2.13-2.755,3.394-4.838,2.902l-11.017-2.771v13.74l11.017-2.747c2.146-0.522,4.307,0.765,4.846,2.91      c0.53,2.146-0.773,4.307-2.91,4.846l-15.979,3.979C468.365,247.972,468.045,248.011,467.718,248.011z"></path></g></g></g><g><g><g><g><path d="M106.204,136.152c-0.659,0-1.33-0.156-1.947-0.507c-1.923-1.069-2.61-3.503-1.544-5.423       c0.319-0.585,7.739-14.309,0.008-28.056c-9.976-17.734-0.414-35.141,0-35.874c1.072-1.92,3.495-2.622,5.422-1.521       c1.924,1.068,2.61,3.503,1.545,5.422c-0.32,0.585-7.739,14.31-0.008,28.057c9.975,17.734,0.414,35.141,0,35.874       C108.95,135.427,107.597,136.152,106.204,136.152z"></path></g></g></g><g><g><g><path d="M166.124,136.152c-0.659,0-1.33-0.156-1.946-0.507c-1.924-1.069-2.61-3.503-1.545-5.423       c0.319-0.585,7.739-14.309,0.008-28.056c-9.975-17.734-0.414-35.141,0-35.874c1.068-1.92,3.491-2.622,5.422-1.521       c1.924,1.068,2.61,3.503,1.545,5.422c-0.319,0.585-7.739,14.31-0.008,28.057c9.975,17.734,0.414,35.141,0,35.874       C168.87,135.427,167.517,136.152,166.124,136.152z"></path></g></g></g><g><g><g><path d="M226.044,136.152c-0.659,0-1.33-0.156-1.946-0.507c-1.924-1.069-2.61-3.503-1.545-5.423       c0.32-0.585,7.739-14.309,0.008-28.056c-9.975-17.734-0.414-35.141,0-35.874c1.072-1.92,3.491-2.622,5.422-1.521       c1.923,1.068,2.61,3.503,1.544,5.422c-0.319,0.585-7.739,14.31-0.008,28.057c9.976,17.734,0.414,35.141,0,35.874       C228.79,135.427,227.437,136.152,226.044,136.152z"></path></g></g></g><g><g><g><path d="M285.96,136.152c-0.655,0-1.326-0.156-1.942-0.507c-1.928-1.069-2.613-3.503-1.545-5.423       c0.32-0.585,7.739-14.309,0.008-28.056c-9.971-17.734-0.414-35.141,0-35.874c1.068-1.92,3.503-2.622,5.422-1.521       c1.928,1.068,2.614,3.503,1.545,5.422c-0.319,0.585-7.739,14.31-0.008,28.057c9.972,17.734,0.414,35.141,0,35.874       C288.707,135.427,287.356,136.152,285.96,136.152z"></path></g></g></g><g><g><g><path d="M345.88,136.152c-0.655,0-1.326-0.156-1.942-0.507c-1.928-1.069-2.613-3.503-1.545-5.423       c0.32-0.585,7.74-14.309,0.008-28.056c-9.971-17.734-0.414-35.141,0-35.874c1.076-1.92,3.503-2.622,5.422-1.521       c1.928,1.068,2.614,3.503,1.545,5.422c-0.319,0.585-7.739,14.31-0.008,28.057c9.972,17.734,0.414,35.141,0,35.874       C348.627,135.427,347.276,136.152,345.88,136.152z"></path></g></g></g><g><g><g><path d="M405.8,136.152c-0.655,0-1.326-0.156-1.942-0.507c-1.928-1.069-2.613-3.503-1.545-5.423       c0.32-0.585,7.74-14.309,0.008-28.056c-9.971-17.734-0.413-35.141,0-35.874c1.068-1.92,3.503-2.622,5.423-1.521       c1.927,1.068,2.613,3.503,1.544,5.422c-0.319,0.585-7.739,14.31-0.008,28.057c9.972,17.734,0.414,35.141,0,35.874       C408.547,135.427,407.197,136.152,405.8,136.152z"></path></g></g></g></g></g></svg>