<svg height='300px' width='300px'  fill="#000000" xmlns="http://www.w3.org/2000/svg" xmlns:xlink="http://www.w3.org/1999/xlink" version="1.1" x="0px" y="0px" viewBox="0 0 100 100" enable-background="new 0 0 100 100" xml:space="preserve"><g><circle cx="47.5" cy="71.618" r="4.105"></circle><circle cx="87.114" cy="71.618" r="4.105"></circle><path d="M81.27,70.253H53.294c-0.833,0-1.507,0.674-1.507,1.506c0,0.831,0.674,1.507,1.507,1.507H81.27   c0.833,0,1.506-0.676,1.506-1.507C82.775,70.927,82.103,70.253,81.27,70.253z"></path><path d="M87.587,66.084H47.17c-2.794,0-5.068,2.274-5.068,5.068V72c0,2.795,2.273,5.068,5.068,5.068h40.417   c2.794,0,5.068-2.273,5.068-5.068v-0.848C92.655,68.358,90.381,66.084,87.587,66.084z M91.528,72c0,2.174-1.769,3.942-3.941,3.942   H47.17c-2.173,0-3.942-1.769-3.942-3.942v-0.848c0-2.174,1.769-3.941,3.942-3.941h40.417c2.173,0,3.941,1.768,3.941,3.941V72z"></path><path d="M89.364,48.004h-9.553c-1.082,0-1.96,0.813-1.96,1.814h13.473C91.324,48.817,90.447,48.004,89.364,48.004z"></path><rect x="60.742" y="63.691" width="13.078" height="1.642"></rect><path d="M94.586,56.64c-0.249-0.313,0-0.751,0-0.751v-0.751c0,0-0.624-2.816-0.875-3.566c-0.251-0.752-1.251-1.001-1.251-1.001   h-2.498v12.375c0.616,0.004,1.052,0.009,1.258,0.014c2.45,0.063,3.43-1.439,3.681-2.503C95.15,59.393,94.837,56.952,94.586,56.64z"></path><polygon points="10.006,38.54 8.11,38.382 11.722,51.569 13.488,51.271  "></polygon><polygon points="14.227,55.618 13.134,51.493 12.236,51.651 13.404,55.801  "></polygon><polygon points="21.941,26.556 22.161,25.321 10.332,23.516 11.125,24.865  "></polygon><path d="M18.376,33.043c0.721,0.202,19.173,3.278,21.033,3.582c1.86,0.304,8.845,1.747,10.554,3.151   c0.721,0.592,1.388,1.096,1.957,1.579c-0.227,0.228-0.442,0.477-0.624,0.742c-0.83,1.204-2.79,8.149-2.501,9.372   c0.138,0.589,0.393,0.839,0.599,1.039c0.209,0.204,0.372,0.366,0.458,0.991c0.062,0.447,0.027,1.059-0.009,1.706   c-0.071,1.3-0.152,2.772,0.42,3.918c0.807,1.614,1.18,2.297,1.195,2.325c0.067,0.126,0.196,0.196,0.329,0.196   c0.062,0,0.123-0.015,0.18-0.046c0.183-0.1,0.25-0.327,0.15-0.508c-0.004-0.007-0.384-0.705-1.183-2.305   c-0.484-0.967-0.409-2.333-0.342-3.54c0.038-0.685,0.073-1.331,0.003-1.849c-0.12-0.881-0.429-1.183-0.677-1.425   c-0.178-0.174-0.305-0.299-0.394-0.676c-0.218-0.924,1.613-7.647,2.389-8.773c0.163-0.237,0.358-0.459,0.566-0.666   c0.394,0.383,0.708,0.767,0.912,1.186c-0.616,1.649-1.229,3.334-1.229,3.334l-0.559,0.063l-1.006,4.693l0.376,0.752   c0,0-0.188,3.69,0,5.693c0.187,2.002,3.378,5.381,3.378,5.381s26.973-0.049,34.859-0.017V50.57h-4.247v1.654h-0.753V50.57h-0.705   v1.654h-0.751V50.57H82.05v1.654h-0.752V50.57h-0.706v1.654h-0.751V50.57h-0.707v1.654h-0.751V50.57h-2.441   c0,0-1.127-8.447-1.502-10.137c-0.377-1.69-1.94-1.69-1.94-1.69H58.303l-0.133-0.875c0,0-2.146-4.108-7.829-5.616   c-0.571-0.709-3.016-3.709-4.005-4.347c-0.761-0.492-2.761-0.52-4.92-0.506c-0.513,0.004-0.92-0.002-1.466,0.068   c-0.421,0.07-1.85,0.203-2.267,0.433l-12.525-1.973l0.078-0.49l-2.42-0.204l-0.354,1.895l2.409,0.61l0.052-0.329l14.288,2.387   l0.146,0.744c-8.979-1.111-19.762-2.152-19.762-2.152s-2.66-0.378-3.647,0c-0.981,0.375-2.299,0.341-3.135,0.34   c-1.033-1.386-2.057-2.775-2.33-3.194c-0.596-0.917-1.237-2.155-1.879-2.476c-0.642-0.322-1.101,0-1.101,0L4.98,26.863l2.023,4.42   l0.595,6.459l2.571,0.454l8.282,18.089h-3.771c0,0,0.029-0.333-0.455-0.365c-0.484-0.031-1.235,0.438-1.235,0.907   c0,0.469-0.031,0.751,0.625,0.971c0.063,0.021,0.131,0.027,0.199,0.034l-0.042,0.012l2.143,2.957c0,0-0.078,0.656,0,1.001   s0.454,0.907,0.517,1.032c0.062,0.125-0.188,0.971-0.25,1.064c-0.063,0.094-1.939,2.095-1.283,4.191   c0.657,2.098,1.751,3.599,3.253,4.067c1.501,0.47,6.508,0.344,6.508,0.344l0.5,0.502h4.13l1.721-0.877l-2.034-0.875l-0.063-0.439   l1.033-0.151c0,0-0.125-0.755-0.595-1.225s-2.097-1.095-2.097-1.095l-3.879-6.696l-0.438-2.14l-0.13-0.013L15.279,32.02v0   C16.276,32.441,17.808,32.884,18.376,33.043z M72.624,40.925c0.794,0.147,0.854,2.031,1.296,4.444   c0.44,2.413,0.706,8.857,0.706,8.857s-4.591,0.206-5.121,0s-0.882-0.794-0.882-1.001c0-0.205-0.679-12.3-0.679-12.3   S71.83,40.778,72.624,40.925z M56.98,41.121h8.071c0,0,0.502,0.251,0.627,0.813c0.124,0.563,0,14.831,0,14.831s-8.26,0-9.95,0   c-1.689,0.001-1.485-0.126-1.965-0.707c-0.76-0.923-0.225-1.86,0.213-6.303C54.416,45.313,56.98,41.121,56.98,41.121z    M41.002,28.073c1.354-0.008,4.29,0.052,4.927,0.462c0.789,0.508,2.48,2.542,3.188,3.437c-0.589-0.118-1.282-0.241-2.06-0.367   l-5-2.811l-0.281-0.25l-2.278-0.359C39.889,28.139,40.414,28.077,41.002,28.073z M19.828,59.289   c-0.054,0.238-0.267,0.908-0.984,1.01c-0.876,0.126-1.127,0-1.127,0l-2.201-2.931c0.183-0.065,0.365-0.127,0.542-0.166   c0.845-0.188,2.785-0.063,2.785-0.063l0,0L19.828,59.289z"></path></g></svg>