<svg height='300px' width='300px'  fill="#000000" xmlns="http://www.w3.org/2000/svg" xmlns:xlink="http://www.w3.org/1999/xlink" version="1.1" x="0px" y="0px" viewBox="0 0 329.667 238.379" style="enable-background:new 0 0 329.667 238.379;" xml:space="preserve"><g><path d="M154.172,200.355c8.876,0,16.069,7.193,16.069,16.067c0,0.41-0.031,0.812-0.061,1.214h53.768   c-0.03-0.402-0.061-0.804-0.061-1.214c0-6.975,4.453-12.894,10.665-15.116l-4.756-10.566l-13.928-2.593v-9.502l-45.221-10.447   v11.527l-15.717-2.928l-32.073-65.612l-3.201-1.201c0.137,1.145,0.093,2.33-0.184,3.516c-0.299,1.28-0.832,2.448-1.538,3.476   l30.365,62.123v22.379C150.119,200.762,152.096,200.355,154.172,200.355z"></path><path d="M166.612,216.42c0-6.856-5.576-12.439-12.439-12.439c-6.858,0-12.443,5.583-12.443,12.439   c0,6.865,5.585,12.441,12.443,12.441C161.036,228.86,166.612,223.285,166.612,216.42z M154.174,210.954   c3.014,0,5.47,2.454,5.47,5.466c0,3.016-2.456,5.47-5.47,5.47c-3.018,0-5.473-2.454-5.473-5.47   C148.701,213.408,151.156,210.954,154.174,210.954z"></path><path d="M227.515,216.42c0,6.865,5.585,12.441,12.443,12.441c6.863,0,12.439-5.576,12.439-12.441   c0-6.856-5.576-12.439-12.439-12.439C233.099,203.981,227.515,209.564,227.515,216.42z M245.428,216.42   c0,3.016-2.455,5.47-5.473,5.47c-3.016,0-5.47-2.454-5.47-5.47c0-3.012,2.454-5.466,5.47-5.466   C242.973,210.954,245.428,213.408,245.428,216.42z"></path><path d="M305.75,206.754c3.394,8.64-0.249,19.522-2.13,24.125h-0.701c-0.944-14.557-2.094-20.584-10.836-30.625   c4.264,10.853,2.518,24.553,1.518,30.168c-1.211-18.685-2.68-26.414-13.893-39.293c4.824,12.279,3.647,27.405,2.422,35.737   c-0.951-11.752-2.655-17.547-10.547-26.612c4.091,10.414,2.649,23.451,1.642,29.449c-3.092-9.873-4.141-14.127-12.029-19.582   c4.602,6.396,4.228,15.901,3.65,20.758h-17.906h-13.97h-71.814h-13.969H0v7.5h329.667v-7.5h-16.399   C312.655,219.54,312.678,214.712,305.75,206.754z"></path><path d="M60.006,64.664c0.099-5.523,4.651-10.018,10.146-10.018l0.249,0.003c5.584,0.1,10.077,4.736,10.002,10.334   c-0.003,0.595,0.064,8.168,4.304,16.398c0.77-3.918,1.546-7.618,2.201-10.964c2.869-9.95-0.885-21.862-9.42-23.991   c-8.537-2.127-20.912,2.508-25.947,17.15c-6.805,20.173-8.268,33.306-5.682,55.52c1.546,7.955,5.024,12.38,9.251,14.81   c2.834,16.566,3.485,48.662-25.821,72.778c-5.331,4.387-6.096,12.265-1.709,17.595c4.386,5.33,12.263,6.097,17.595,1.71   c17.121-14.089,28.434-32.053,33.342-52.687c3.805,12.21,6.935,26.868,8.252,43.993c0.504,6.557,5.98,11.542,12.449,11.542   c0.322,0,0.646-0.013,0.973-0.038c6.883-0.529,12.033-6.538,11.504-13.422c-3.658-47.557-20.014-78.961-30.139-94.229   c-0.506-4.045-0.631-8.241-0.479-12.478C64.583,95.222,59.806,75.813,60.006,64.664z"></path><path d="M117.329,113c1.004-4.303-1.67-8.604-5.973-9.609C78.443,95.71,78.197,66.307,78.204,64.954   c0.06-4.4-3.45-8.026-7.855-8.105c-4.413-0.107-8.063,3.438-8.142,7.855c-0.271,15.033,8.894,45.723,45.513,54.269   c0.612,0.143,1.224,0.211,1.825,0.211C113.178,119.184,116.467,116.691,117.329,113z"></path><path d="M92.361,44.915c0.288,0.263,0.587,0.518,0.907,0.759l0.382,0.286l0.472-0.067c9.248-1.321,14.004-5.002,16.357-7.817   c3.881-4.043,6.271-9.529,6.271-15.576c0-12.427-10.072-22.5-22.5-22.5C84.083,0,75.494,6.746,72.706,16.005   c5.038,3.272,11.487,6.272,15.528,8.028l-0.019,0.083c-0.032,0.137-0.221,0.97-0.402,2.247c-3.892-1.67-10.363-4.636-15.678-7.992   c-0.248,1.339-0.385,2.717-0.385,4.128C71.75,34.29,80.82,43.955,92.361,44.915z M90.199,26.021l19.777,8.773   c-1.146,2.098-4.945,7.084-15.696,8.749C88.771,38.985,89.642,29.558,90.199,26.021z"></path></g></svg>