<svg height='300px' width='300px'  fill="#000000" xmlns="http://www.w3.org/2000/svg" xmlns:xlink="http://www.w3.org/1999/xlink" version="1.1" x="0px" y="0px" viewBox="0 0 262.008 203.501" style="enable-background:new 0 0 262.008 203.501;" xml:space="preserve"><g><path d="M127.228,44.943h4.21c1.504,0,2.724-1.219,2.724-2.725v-8.17c0-1.506-1.22-2.725-2.724-2.725H46.999V12.396h12.256   c0,0,0.04,0,0.186,0.009c0.514,0.032,1.925,0.233,3.043,0.966c1.108,0.757,2.044,1.804,2.082,4.335h3.001   c0.051-3.936-2.163-6.33-4.236-7.3c-2.064-1.019-3.951-1.002-4.076-1.01H46.999V6.811h1.362V0H36.104v6.811h1.362v24.514h-7.831   c-1.504,0-2.724,1.219-2.724,2.725v8.17c0,1.506,1.22,2.725,2.724,2.725h3.746v36.771h29.28v1.361c0,1.504,1.22,2.725,2.724,2.725   h23.152c1.504,0,2.724-1.221,2.724-2.725v-1.361h1.636h0.407c1.015,0,4.292,0,13.619,0   C122.635,81.715,126.546,51.704,127.228,44.943z M42.915,12.398v-0.002V12.398z"></path><path d="M71.96,89.886v31.436c-0.017,9.21-7.468,16.661-16.678,16.677c-9.211-0.016-16.663-7.469-16.68-16.677v-21.263H6.503   v10.002h22.098v11.261c0.002,14.737,11.944,26.675,26.681,26.679c14.735-0.004,26.677-11.943,26.679-26.679V89.886h-9.998H71.96z"></path><rect y="94.041" width="6.503" height="21.859"></rect><ellipse transform="matrix(0.7039 -0.7103 0.7103 0.7039 -3.8867 131.6875)" cx="156.015" cy="70.506" rx="22.496" ry="22.494"></ellipse><path d="M249.51,178.5h-29.245l10.344-11.087c6.679-4.487,11.3-10.191,5.973-23.96c-9.633-20.185-17.855-30.525-34.354-43.984   c-12.053-9.719-25-7.059-31.094-0.713c-3.148,3.276-3.812,8.084-2.669,12.917c4.532-3.613,7.159-6.824,7.189-6.861   c1.922-2.431,4.782-3.812,7.859-3.812c2.265,0,4.402,0.741,6.185,2.146c2.097,1.651,3.426,4.023,3.741,6.677   c0.313,2.65-0.424,5.267-2.077,7.365c-1.144,1.424-5.01,5.96-11.437,10.909c3.972,3.819,8.622,7.948,13.18,12.398l-28.157-0.989   c-3.385-0.119-6.684,1.147-9.122,3.502c-2.436,2.352-3.817,5.605-3.817,8.992v39c0,6.903,5.598,12.501,12.501,12.501   c6.903,0,12.501-5.598,12.501-12.501l-0.003-26.055l21.024,0.737l-15.664,16.789c-3.394,3.641-4.307,8.945-2.323,13.511   c1.984,4.565,6.487,7.517,11.464,7.517h58.001c6.903,0,12.499-5.597,12.499-12.5C262.008,184.096,256.413,178.5,249.51,178.5z"></path><path d="M123.856,147.713c1.258,2.734,4.493,3.93,7.226,2.672c2.734-1.26,3.928-4.494,2.67-7.227l-0.563-1.223   c-4.491-0.539-8.984-1.594-13.444-3.153L123.856,147.713z"></path><path d="M119.513,117.998c0.971,0,1.925,0.145,2.851,0.421l-2.288-4.97c3.429-3.885,4.458-9.572,2.15-14.582   c-2.306-5.012-7.296-7.928-12.477-7.848l3.513,7.629c1.258,2.733,0.062,5.969-2.671,7.227c-2.732,1.258-5.967,0.063-7.226-2.67   l-3.513-7.629c-3.43,3.885-4.458,9.57-2.15,14.582c2.306,5.01,7.295,7.926,12.478,7.846l1.651,3.586   C113.699,119.348,116.489,117.998,119.513,117.998z"></path><path d="M188.459,104.716c-3.465-2.732-8.485-2.139-11.222,1.318h-0.001c-0.177,0.231-4.138,5.038-10.715,9.575   c-6.603,4.571-15.608,8.777-26.244,8.767c-5.348-0.004-11.19-1.031-17.665-3.75c-4.073-1.714-8.764,0.198-10.478,4.27   c-1.714,4.073,0.198,8.765,4.271,10.478c8.332,3.513,16.39,5.004,23.823,5.004c0.017,0,0.032,0,0.048,0   c15.415-0.013,27.777-6.211,36.149-12.171c8.402-5.993,13.044-11.86,13.365-12.256C192.526,112.479,191.93,107.45,188.459,104.716z   "></path></g></svg>