<svg height='300px' width='300px'  fill="#000000" xmlns="http://www.w3.org/2000/svg" xmlns:xlink="http://www.w3.org/1999/xlink" version="1.1" x="0px" y="0px" viewBox="0 0 446 218.86" style="enable-background:new 0 0 446 218.86;" xml:space="preserve"><g><polygon points="388,98.425 388,46.86 398,46.86 398,21.86 313,21.86 313,46.86 323,46.86 323,114.748 0,195.86 0,218.86    446,218.86 446,83.86  "></polygon><ellipse transform="matrix(0.7103 -0.7039 0.7039 0.7103 44.8635 153.9921)" cx="209.506" cy="22.495" rx="22.494" ry="22.496"></ellipse><path d="M207,120.208l6.046,4.498l5.365-7.21c-2.849-0.317-5.631-0.791-8.326-1.434L207,120.208z"></path><path d="M247.605,97.198l6.748-9.068l-9.067-6.748l2.249-3.021l-6.045-4.5l-2.249,3.023l-3.022-2.249l-9.045-0.469l-3.749,5.039   l9.067,6.748l-4.596,6.175c0.547-3.397-1.155-6.893-4.412-8.468c-13.733-6.637-22.727-17.138-28.312-26.143   c-2.783-4.486-4.693-8.564-5.882-11.461c-0.596-1.449-1.01-2.602-1.267-3.36c-0.129-0.382-0.219-0.662-0.272-0.834   c-0.025-0.085-0.043-0.144-0.051-0.171h-0.002c-0.207-0.735-0.516-1.413-0.897-2.032c-0.524-1.465-1.318-2.81-2.425-3.962   c-6.094-6.344-19.041-9.006-31.094,0.713c-16.498,13.459-24.722,23.799-34.353,43.984c-5.919,15.297,0.441,20.641,8.262,25.42   c0.235,0.145,0.467,0.285,0.694,0.424l16.019,16.961l-1.537,1.97c-0.696,0.892-1.252,1.847-1.671,2.842l-32.009,8.797   c-6.657,1.828-10.57,8.707-8.74,15.366c1.523,5.547,6.557,9.19,12.046,9.19c1.097,0,2.212-0.146,3.32-0.45l58.221-16.001   c4.227-1.161,7.544-4.462,8.725-8.684c1.183-4.223,0.061-8.764-2.951-11.952l-2.48-2.627l11.952-15.314   c-0.496-0.366-0.989-0.735-1.471-1.118c-7.63-6.04-13.714-14.09-18.075-23.927c-0.061-0.141-0.115-0.279-0.176-0.42l-11.189,1.166   c2.748-2.908,5.63-5.69,8.463-8.348c-3.614-11.034-4.24-20.51-4.324-24.568l-0.005-0.163c-0.002-5.61,4.485-10.096,9.999-10.096   c5.514,0,9.998,4.485,9.998,9.999L182,48.989c0.007,0.189,0.013,0.444,0.03,0.782c0.05,1.021,0.133,2.109,0.251,3.24   c0.27,2.576,0.845,6.599,2.063,11.129c0.974,3.642,2.468,7.945,4.715,12.217c5.855,7.053,13.583,14.144,23.608,19.694   c3.357,0.966,6.979,1.585,10.925,1.827c2.662,0.156,5.107,1.343,6.88,3.339c0.01,0.011,0.018,0.023,0.027,0.034l8.038-10.802   L247.605,97.198z M237.766,85.178c-0.836-0.621-1.009-1.803-0.388-2.637c0.622-0.834,1.802-1.008,2.637-0.387   c0.834,0.621,1.007,1.803,0.387,2.637C239.78,85.625,238.6,85.797,237.766,85.178z"></path><path d="M223.47,99.874c-11.299-0.694-19.068-4.125-24.992-8.774c-8.84-6.943-13.646-17.398-16.064-26.44   c-1.208-4.493-1.82-8.56-2.121-11.442c-0.15-1.443-0.223-2.59-0.26-3.345c-0.02-0.381-0.025-0.662-0.03-0.833   C180,48.95,180,48.892,180,48.862l-0.002-0.002c0-4.418-3.581-7.999-7.999-7.999c-4.418,0-7.999,3.581-7.999,7.999   c0.034,0.612-0.043,15.477,7.06,31.619c3.57,8.05,9.049,16.489,17.492,23.17c8.418,6.694,19.775,11.39,33.977,12.196   c0.159,0.01,0.319,0.015,0.477,0.015c4.202,0,7.727-3.278,7.979-7.53C231.245,103.919,227.881,100.133,223.47,99.874z"></path></g></svg>