<?xml version="1.0" encoding="iso-8859-1"?>
<!-- Generator: Adobe Illustrator 19.0.0, SVG Export Plug-In . SVG Version: 6.00 Build 0)  -->
<svg version="1.1" id="Layer_1" xmlns="http://www.w3.org/2000/svg" xmlns:xlink="http://www.w3.org/1999/xlink" x="0px" y="0px"
	 viewBox="0 0 511.998 511.998" style="enable-background:new 0 0 511.998 511.998;" xml:space="preserve">
<rect x="399.693" y="132.015" style="fill:#8BA1FC;" width="79.96" height="23.989"/>
<g>
	<rect x="399.693" y="132.015" style="fill:#5267BD;" width="23.989" height="23.989"/>
	<rect x="295.737" y="132.015" style="fill:#5267BD;" width="23.989" height="23.989"/>
	<rect x="191.792" y="132.015" style="fill:#5267BD;" width="23.989" height="23.989"/>
	<rect x="87.836" y="132.015" style="fill:#5267BD;" width="23.989" height="23.989"/>
</g>
<rect x="399.693" y="371.894" style="fill:#8BA1FC;" width="79.96" height="23.989"/>
<g>
	<rect x="399.693" y="371.894" style="fill:#5267BD;" width="23.989" height="23.989"/>
	<rect x="295.737" y="371.894" style="fill:#5267BD;" width="23.989" height="23.989"/>
	<rect x="191.792" y="371.894" style="fill:#5267BD;" width="23.989" height="23.989"/>
	<rect x="87.836" y="371.894" style="fill:#5267BD;" width="23.989" height="23.989"/>
</g>
<rect x="7.876" y="52.05" style="fill:#BDCCD4;" width="79.96" height="423.805"/>
<rect x="7.876" y="52.05" style="fill:#89989F;" width="31.985" height="423.805"/>
<g>
	<rect x="112.252" y="52.05" style="fill:#BDCCD4;" width="79.54" height="423.805"/>
	<polygon style="fill:#BDCCD4;" points="295.74,475.851 215.779,475.851 216.62,52.05 295.74,52.05 	"/>
	<polygon style="fill:#BDCCD4;" points="399.271,475.851 319.729,475.851 319.729,52.05 399.692,52.05 	"/>
</g>
<polygon style="fill:#FBB03B;" points="503.599,316.016 455.291,316.016 455.291,331.768 472.094,331.768 472.094,347.521 
	487.846,347.521 487.846,331.768 503.599,331.768 "/>
<rect x="472.092" y="291.861" width="15.752" height="15.752"/>
<rect x="455.667" y="52.05" style="fill:#FBB03B;" width="47.978" height="47.978"/>
<g>
	<rect x="111.822" y="52.05" style="fill:#89989F;" width="31.985" height="423.805"/>
	<rect x="215.778" y="52.05" style="fill:#89989F;" width="31.985" height="423.805"/>
	<rect x="319.733" y="52.05" style="fill:#89989F;" width="31.985" height="423.805"/>
</g>
<rect x="496.245" y="123.835" width="15.752" height="39.906"/>
<path d="M487.846,172.143v-55.659h-15.753v7.351h-64.597l0.08-79.661h-95.723v79.661h-8.236V44.174H208.76l-0.159,79.661h-8.936
	V44.174h-95.294v79.661h-8.657V44.174H0v439.553h95.715v-79.497h8.657v79.497h95.294v-79.497h8.379l-0.158,79.497h95.73v-79.497
	h8.236v79.497h95.286l0.079-79.497h64.875v7.351h15.753v-55.659h-15.753v8.401h-64.835l0.2-200.582h64.637v8.401h15.751V172.143z
	 M79.963,83.929H63.579v15.752h16.384v8.401H63.579v15.752h16.384V404.23H63.579v15.752h16.384v8.401H63.579v15.752h16.384v23.838
	h-64.21v-23.838h16.322v-15.752H15.752v-8.401h16.322V404.23H15.752V123.836h16.322v-15.752H15.752v-8.401h16.322V83.929H15.752
	V59.927h64.21C79.963,59.927,79.963,83.929,79.963,83.929z M104.372,388.477h-8.657v-8.401h8.657V388.477z M104.372,364.324h-8.657
	V163.742h8.657V364.324z M104.372,147.989h-8.657v-8.401h8.657V147.989z M183.913,83.929h-16.368v15.752h16.368v8.401h-16.368
	v15.752h16.368V404.23h-16.368v15.752h16.368v8.401h-16.368v15.752h16.368v23.838h-63.789v-23.838h15.916v-15.752h-15.916v-8.401
	h15.916V404.23h-15.916V123.836h15.916v-15.752h-15.916v-8.401h15.916V83.929h-15.916V59.927h63.789V83.929z M208.076,388.477h-8.41
	v-8.401h8.427L208.076,388.477z M208.124,364.324h-8.458V163.742h8.856L208.124,364.324z M208.553,147.989h-8.888v-8.401h8.904
	L208.553,147.989z M287.864,83.929h-16.352v15.752h16.352v8.401h-16.352v15.752h16.352V404.23h-16.352v15.752h16.352v8.401h-16.352
	v15.752h16.352v23.838H223.67l0.047-23.838h16.29v-15.752h-16.259l0.017-8.401h16.242V404.23h-16.21l0.558-280.394h15.653v-15.752
	h-15.621l0.017-8.401h15.604V83.929h-15.574l0.047-24.003h63.384V83.929z M311.853,388.477h-8.236v-8.401h8.236V388.477z
	 M311.853,364.324h-8.236V163.742h8.236V364.324z M311.853,147.989h-8.236v-8.401h8.236V147.989z M391.783,83.929h-16.305v15.752
	h16.289l-0.008,8.401h-16.281v15.752h16.265l-0.277,280.394h-15.988v15.752h15.972l-0.008,8.401h-15.964v15.752h15.948
	l-0.023,23.838h-63.798v-23.838h16.368v-15.752h-16.368v-8.401h16.368V404.23h-16.368V123.836h16.368v-15.752h-16.368v-8.401h16.368
	V83.929h-16.368V59.927h64.202L391.783,83.929z M472.094,380.076v8.401h-64.86l0.008-8.401H472.094z M407.473,147.989l0.008-8.401
	h64.612v8.401H407.473z"/>
<rect x="496.245" y="364.323" width="15.752" height="39.906"/>
<path d="M487.846,44.174V28.27h-15.753v15.904h-24.305v63.73h63.73v-63.73H487.846z M495.767,92.152h-32.225V59.927h32.225V92.152z"
	/>
<rect x="472.092" y="68.177" style="fill:#FFFFFF;" width="15.752" height="15.752"/>
<g>
</g>
<g>
</g>
<g>
</g>
<g>
</g>
<g>
</g>
<g>
</g>
<g>
</g>
<g>
</g>
<g>
</g>
<g>
</g>
<g>
</g>
<g>
</g>
<g>
</g>
<g>
</g>
<g>
</g>
</svg>
