<svg id="Capa_1" enable-background="new 0 0 512 512" height="512" viewBox="0 0 512 512" width="512" xmlns="http://www.w3.org/2000/svg"><g><g><path d="m156.914 396.659 89.669-52.008c10.498-6.366 24.095-3.893 31.68 5.76 7.303 9.295 6.851 22.498-1.071 31.271l-99.654 42.774z" fill="#eaac9d"/><path d="m194.058 398.859 89.669-52.008c10.498-6.366 24.095-3.893 31.68 5.76 7.303 9.295 6.851 22.498-1.071 31.271l-99.654 42.774z" fill="#ffcbbe"/><path d="m347.217 377.067c0 5.838-2.096 11.662-6.256 16.267l-16.577 18.356-34.016 37.677c-5.663 6.269-13.375 10.301-21.747 11.366l-153.591 19.562-39.241-68.221c-.297-.492-.58-.991-.863-1.497-.047-.081-.088-.162-.135-.236l-1.968-3.431c-.034-.054-.067-.108-.094-.155l-22.779-39.604 36.119-27.74c16.84-12.93 35.823-22.684 56.019-28.846.856-.263 1.712-.519 2.568-.762 6.128-1.766 12.37-3.209 18.687-4.308l6.256-1.092c12.93-2.245 25.306 6.195 27.929 19.051.33 1.618.492 3.242.492 4.854 0 7.725-3.701 15.107-10.132 19.718l-39.861 28.556 106.855 13.354 55.467-33.632c10.496-6.364 24.093-3.89 31.677 5.764 3.472 4.415 5.191 9.714 5.191 14.999z" fill="#ffddce"/><path d="m324.384 411.69-34.016 37.677c-5.663 6.269-13.375 10.301-21.747 11.366l-153.591 19.562-39.241-68.221c46.42 78.528 229.996 20.217 248.595-.384z" fill="#ffcbbe"/><path d="m72.823 406.91c.661 1.119 1.315 2.258 1.968 3.431z" fill="#ffcbbe"/><path d="m115.03 480.293-49.602 31.707-30.953-53.803-34.129-59.338 49.602-31.707 37.262 64.775z" fill="#e490d0"/><path d="m115.03 480.293-49.602 31.707-30.953-53.803c35.504 2.785 52.735-26.27 52.735-26.27z" fill="#df73c1"/><path d="m76.13 482.717c-4.267 0-7.726-3.459-7.726-7.726v-.515c0-4.267 3.459-7.726 7.726-7.726s7.726 3.459 7.726 7.726v.515c.001 4.267-3.459 7.726-7.726 7.726z" fill="#f7f9f9"/></g><g><circle cx="290.987" cy="265.489" fill="#f6e266" r="90.073"/><path d="m305.208 257.518c-11.253-3.276-23.737-7.259-31.009-11.956-3.982-2.572-3.749-6.828-3.464-8.539.71-4.258 4.172-9.477 11.759-11.36 16.135-4.003 26.519 3.278 27.065 3.674 3.395 2.534 8.205 1.862 10.772-1.52 2.581-3.398 1.919-8.245-1.479-10.826-.458-.349-8.228-6.109-20.878-7.61v-5.613c0-4.267-3.459-7.726-7.726-7.726s-7.726 3.459-7.726 7.726v6.106c-1.228.219-2.475.474-3.749.79-12.236 3.036-21.374 12.385-23.28 23.817-1.615 9.685 2.341 18.904 10.321 24.059 7.208 4.656 17.37 8.658 35.074 13.813 9.797 2.852 14.825 8.72 13.793 16.099-1.173 8.387-9.956 16.92-24.476 16.999-12.079.07-16.842-.378-27.104-5.906-3.756-2.023-8.442-.62-10.466 3.137s-.619 8.443 3.137 10.466c10.521 5.669 17.397 7.27 26.749 7.651v6.409c0 4.267 3.459 7.726 7.726 7.726s7.726-3.459 7.726-7.726v-6.936c18.74-3.01 30.159-16.441 32.011-29.683 2.112-15.092-7.614-28.075-24.776-33.071z" fill="#eab14d"/></g><g><path d="m355.086 115.342-89.669 52.008c-10.498 6.366-24.095 3.893-31.68-5.76-7.303-9.295-6.851-22.498 1.071-31.271l99.654-42.774z" fill="#d3806b"/><path d="m317.942 113.141-89.669 52.008c-10.498 6.366-24.095 3.893-31.68-5.76-7.303-9.295-6.851-22.498 1.071-31.271l99.654-42.774z" fill="#df9380"/><path d="m164.783 134.933c0-5.838 2.097-11.662 6.256-16.267l16.577-18.356 34.016-37.677c5.663-6.269 13.374-10.301 21.747-11.366l153.591-19.562 39.24 68.221c.297.492.58.991.863 1.497.047.081.088.162.135.236l1.968 3.431c.034.054.067.108.094.155l22.778 39.605-36.119 27.74c-16.84 12.93-35.823 22.684-56.019 28.846-.856.263-1.712.519-2.568.762-6.128 1.766-12.37 3.209-18.687 4.308l-6.256 1.092c-12.93 2.245-25.306-6.195-27.929-19.051-.33-1.618-.492-3.243-.492-4.854 0-7.725 3.701-15.107 10.132-19.718l39.861-28.556-106.855-13.354-55.467 33.632c-10.496 6.364-24.093 3.89-31.677-5.764-3.47-4.416-5.189-9.715-5.189-15z" fill="#eaac9d"/><path d="m187.616 100.31 34.016-37.677c5.663-6.269 13.374-10.301 21.747-11.366l153.591-19.562 39.24 68.221c-46.419-78.528-229.995-20.217-248.594.384z" fill="#df9380"/><path d="m439.177 105.09c-.661-1.119-1.315-2.258-1.968-3.431z" fill="#ffcbbe"/><path d="m396.97 31.707 49.602-31.707 30.953 53.803 34.129 59.338-49.602 31.707-37.262-64.775z" fill="#f7f9f9"/><path d="m396.97 31.707 49.602-31.707 30.953 53.803c-35.504-2.785-52.735 26.27-52.735 26.27z" fill="#dae4ea"/><path d="m435.87 46.281c-4.267 0-7.726-3.459-7.726-7.726v-.515c0-4.267 3.459-7.726 7.726-7.726s7.726 3.459 7.726 7.726v.515c0 4.266-3.459 7.726-7.726 7.726z" fill="#df73c1"/></g></g></svg>