<svg height='300px' width='300px'  fill="#000000" xmlns="http://www.w3.org/2000/svg" xmlns:xlink="http://www.w3.org/1999/xlink" version="1.1" x="0px" y="0px" viewBox="0 0 128 128" style="enable-background:new 0 0 128 128;" xml:space="preserve"><path d="M63.9403954,1.2842C63.2255936,0.4902,62.1996956,0.0264,61.1117935,0.002C61.0702934,0,61.0282936,0,60.9867935,0  c-1.0205002,0-2.0360985,0.4336-2.7543983,1.166c-0.2137985,0.2168-21.5483017,21.6728992-48.0756989,21.6728992  c-0.6859999,0-1.3711004-0.0146999-2.0639-0.0439987c-0.0640001-0.0029011-0.1284003-0.0049-0.1919003-0.0049  c-2.0313001,0-3.7353997,1.5693989-3.8344998,3.5634995c-0.0395002,0.8095989-0.9263,20.0429993,5.1972995,42.1718979  c8.2279997,29.7412033,25.3148994,50.2217026,49.4140015,59.2256012C59.1215935,127.9169998,59.594696,128,60.0634956,128  c0.3339996,0,0.6610985-0.0400009,0.9857979-0.125c0.554203-0.1416016,13.1112976-3.4746017,26.3510971-16.1787033  C69.7152939,109.4287033,56,94.2910004,56,76c0-19.8506012,16.1488953-36,35.9980011-36  c9.1070023,0,17.6904907,3.3604012,24.3491898,9.4873009c0.9184036-6.4599991,1.5038986-13.4403992,1.6518097-21.0068016  c0.0361938-1.8848-1.3828049-3.5058994-3.3076096-3.7783985C114.3524933,24.6553001,80.5106964,19.6952991,63.9403954,1.2842z   M45,102c-1.1045036,0-2-0.8955002-2-2s0.8954964-2,2-2c1.104496,0,2,0.8955002,2,2S46.104496,102,45,102z M51.1898956,27.6074009  c-6.4798965,4.7968998-16.6678963,10.5107975-28.4155006,10.5107975c-0.0150986,0.0009003-0.0292988,0.0009003-0.0438995,0  c-0.2787991,0-0.4540997,0.1298027-0.5352001,0.2070007c-0.0722961,0.0693016-0.1932945,0.2168007-0.1947994,0.4277  c-0.0044003,0.5586014-0.0493011,13.8232994,4.8300991,28.8788986c3.2436008,10.0166016,7.9330997,18.4346008,13.9375019,25.0205002  c0.7440987,0.8165054,0.6854973,2.0811005-0.1304016,2.8252029C40.2538948,95.8271027,39.7714958,96,39.2904968,96  c-0.5429001,0-1.0839996-0.2197037-1.4784966-0.652298c-6.3911057-7.0108032-11.3662052-15.9208984-14.7871037-26.4833984  c-5.0762005-15.6641045-5.028801-29.5567055-5.0244007-30.1407051c0.0083008-1.2450981,0.5156002-2.4130974,1.4277-3.2870979  c0.8887005-0.8506012,2.0557003-1.3183022,3.2901001-1.3183022c0.0228996,0,0.046299,0,0.0683002,0  c10.6454983,0,20.0274029-5.2870979,26.0235004-9.7255993c0.8880997-0.6552982,2.1400986-0.4706993,2.7972984,0.4179001  C52.264595,25.6982002,52.0775948,26.9501991,51.1898956,27.6074009z"></path><path d="M124,76.0009995C124.0019989,58.3291016,109.6732941,44,92.0033951,44C92.0023956,44,92.0009995,44,92,44  c-17.6733093-0.0009995-32,14.3270988-32,32c0,17.6718979,14.3236923,32,32,32C109.6713943,108,124,93.6718979,124,76.0009995z   M90,48.7402c0-0.2363014,0.0482941-0.4598999,0.1240005-0.6708984C90.7460938,48.0283012,91.3705902,48,92,48h0.0033951h0.0004959  c0.6278992,0,1.251503,0.0283012,1.8721085,0.0693016C93.9516907,48.2793007,94,48.5038986,94,48.7402v5.4522018  c0,1.1044998-0.8955078,2-2,2c-1.1045074,0-2-0.8955002-2-2V48.7402z M64.7406921,78  c-0.2368011,0-0.4603958-0.0487976-0.6708984-0.1240005C64.0282974,77.2558975,64,76.6308975,64,76  c0-0.6288986,0.0282974-1.2538986,0.0692978-1.8759995C64.2797928,74.0487976,64.503891,74,64.7406921,74h5.4512024  c1.1044998,0,2,0.8955002,2,2s-0.8955002,2-2,2H64.7406921z M77.9931946,92.8330002l-3.8550034,3.8564987  c-0.1635971,0.1640015-0.351593,0.2851028-0.5487976,0.3797989c-0.9449005-0.8260956-1.8330994-1.714798-2.6596985-2.6600952  c0.094696-0.1963043,0.2157974-0.3848038,0.3794022-0.547905l3.8549957-3.8563995  c0.7812042-0.7802963,2.0473022-0.7802963,2.828598,0C78.7738953,90.785202,78.7738953,92.0518036,77.9931946,92.8330002z   M77.9940948,61.9921989c-0.3906021,0.3906021-0.902298,0.5858994-1.4144974,0.5858994  c-0.5117035,0-1.0233994-0.1952972-1.4135971-0.5848999l-3.8559036-3.8535995  c-0.1675034-0.1669006-0.2915039-0.3602982-0.3871994-0.5625c0.4111023-0.4687004,0.8330002-0.9305992,1.2782974-1.3759003  c0.444809-0.4452972,0.9061966-0.8661995,1.375-1.2773972c0.2021027,0.0956993,0.3939972,0.2187996,0.560997,0.3857994  l3.8560028,3.8535004C78.7743912,59.9443016,78.7748947,61.2108994,77.9940948,61.9921989z M81.0116959,64.714798  c0.7266006-0.8329964,1.9893036-0.9178963,2.8223038-0.1913986l8.7162933,7.6093979L111.9843903,54.375  c0.8143997-0.7450981,2.0805054-0.6894989,2.8257065,0.1278992c0.7450943,0.8155022,0.6879044,2.080101-0.1275024,2.8251991  L93.9296951,76.2910004c-0.3814011,0.3486023-0.8652039,0.5234985-1.3490982,0.5234985  c-0.4688034,0-0.9380035-0.1641006-1.315506-0.4932022l-10.0619965-8.7841949  C80.3710938,66.8105011,80.2855911,65.5468979,81.0116959,64.714798z M94,103.2598038  c0,0.2362976-0.0483093,0.4598999-0.1235046,0.669899C93.255394,103.9717026,92.6312943,104,92,104  c-0.6313095,0-1.2554092-0.0282974-1.876503-0.0702972C90.0482941,103.7197037,90,103.4961014,90,103.2598038v-5.4512024  c0-1.1044998,0.8954926-2,2-2c1.1044922,0,2,0.8955002,2,2V103.2598038z M110.4105911,97.0692978  c-0.196701-0.094696-0.384201-0.2157974-0.5477982-0.3788986l-3.8569031-3.8544998  c-0.7812958-0.7811966-0.7817993-2.0477982-0.0009995-2.8291016c0.7812042-0.7801971,2.0478058-0.7792969,2.8281097-0.0009003  l3.8568954,3.8544998c0.1635971,0.1640015,0.2851944,0.3515015,0.380394,0.5498047  C112.2436905,95.3544998,111.3554916,96.2432022,110.4105911,97.0692978z M111.8070908,76c0-1.1044998,0.8955002-2,2-2h5.4517059  c0.2372971,0,0.4613953,0.0487976,0.6723938,0.1240005C119.9716949,74.7461014,120,75.3711014,120,76.0009995  c0,0.6307983-0.0283051,1.2548981-0.069809,1.875C119.7191925,77.9512024,119.4955902,78,119.2587967,78h-5.4517059  C112.7025909,78,111.8070908,77.1044998,111.8070908,76z"></path></svg>