<svg height='300px' width='300px'  fill="#000000" xmlns="http://www.w3.org/2000/svg" xmlns:xlink="http://www.w3.org/1999/xlink" version="1.1" x="0px" y="0px" viewBox="0 0 64 64" style="enable-background:new 0 0 64 64;" xml:space="preserve"><g><path d="M37,21v-2c-6.617,0-12,5.383-12,12h2C27,25.486,31.486,21,37,21z"></path><path d="M38.819,21.165c0.622,0.115,1.233,0.289,1.817,0.517l0.729-1.862c-0.703-0.275-1.437-0.483-2.183-0.621L38.819,21.165z"></path><path d="M59,38c0-2.757-2.243-5-5-5v2c1.654,0,3,1.346,3,3s-1.346,3-3,3h-3v2h3C56.757,43,59,40.757,59,38z"></path><rect x="47" y="41" width="2" height="2"></rect><rect x="43" y="41" width="2" height="2"></rect><path d="M54,47c4.962,0,9-4.038,9-9s-4.038-9-9-9c-0.383,0-0.759,0.032-1.13,0.079C51.918,21.1,45.164,15,37,15   c-0.766,0-1.513,0.073-2.251,0.177C33.393,7.028,26.377,1,18,1C8.626,1,1,8.626,1,18c0,4.527,1.79,8.801,4.947,11.975   C3.017,31.461,1,34.496,1,38c0,4.962,4.038,9,9,9h7v11c0,0.551-0.449,1-1,1h-5.184C10.402,57.839,9.302,57,8,57   c-1.654,0-3,1.346-3,3s1.346,3,3,3c1.302,0,2.402-0.839,2.816-2H16c1.654,0,3-1.346,3-3V47h4v5.184c-1.161,0.414-2,1.514-2,2.816   c0,1.654,1.346,3,3,3s3-1.346,3-3c0-1.302-0.839-2.402-2-2.816V47h6v10.184c-1.161,0.414-2,1.514-2,2.816c0,1.654,1.346,3,3,3   s3-1.346,3-3c0-1.302-0.839-2.402-2-2.816V47h6v5.184c-1.161,0.414-2,1.514-2,2.816c0,1.654,1.346,3,3,3s3-1.346,3-3   c0-1.302-0.839-2.402-2-2.816V47h4v11c0,1.654,1.346,3,3,3h5.184c0.414,1.161,1.514,2,2.816,2c1.654,0,3-1.346,3-3s-1.346-3-3-3   c-1.302,0-2.402,0.839-2.816,2H48c-0.551,0-1-0.449-1-1V47H54z M8,61c-0.551,0-1-0.449-1-1s0.449-1,1-1s1,0.449,1,1S8.551,61,8,61z    M24,56c-0.551,0-1-0.449-1-1s0.449-1,1-1s1,0.449,1,1S24.551,56,24,56z M32,61c-0.551,0-1-0.449-1-1s0.449-1,1-1s1,0.449,1,1   S32.551,61,32,61z M40,56c-0.551,0-1-0.449-1-1s0.449-1,1-1s1,0.449,1,1S40.551,56,40,56z M56,59c0.551,0,1,0.449,1,1s-0.449,1-1,1   s-1-0.449-1-1S55.449,59,56,59z M21.966,25.578C21.027,25.203,20.022,25,19,25h-7.147c-0.474-1.862-0.752-3.9-0.82-6h13.944   c-0.017,0.529-0.045,1.054-0.089,1.575C23.628,22.037,22.635,23.729,21.966,25.578z M3.055,19h5.978   c0.063,2.083,0.32,4.115,0.761,6H4.754C3.779,23.157,3.196,21.122,3.055,19z M18,3c2.232,0,4.254,2.387,5.546,6H12.454   C13.746,5.387,15.768,3,18,3z M24.159,11c0.462,1.821,0.746,3.858,0.816,6H11.024c0.07-2.142,0.354-4.179,0.816-6H24.159z    M9.026,17H3.051c0.143-2.155,0.732-4.188,1.693-6h5.034C9.348,12.84,9.089,14.861,9.026,17z M26.222,11h5.055   c0.737,1.403,1.248,2.945,1.512,4.581c-2.146,0.587-4.115,1.6-5.802,2.958C26.991,18.359,27,18.18,27,18   C27,15.488,26.719,13.126,26.222,11z M30.009,9h-4.345c-0.661-2.033-1.535-3.779-2.58-5.108C25.862,4.887,28.265,6.671,30.009,9z    M12.902,3.911C11.864,5.238,10.994,6.977,10.336,9H6.029C7.765,6.696,10.143,4.913,12.902,3.911z M6.011,27h7.715   c-0.719,0.633-1.327,1.387-1.782,2.238C11.306,29.097,10.66,29,10,29c-0.664,0-1.309,0.077-1.932,0.214   C7.305,28.538,6.613,27.8,6.011,27z M3,38c0-3.86,3.14-7,7-7c0.417,0,0.828,0.045,1.233,0.117C11.086,31.722,11,32.35,11,33h2   c0-3.309,2.691-6,6-6c0.83,0,1.645,0.175,2.397,0.503C21.144,28.63,21,29.798,21,31h2c0-7.72,6.28-14,14-14   c7.225,0,13.185,5.46,13.91,12.558C47.467,30.823,45,34.125,45,38h2c0-3.86,3.14-7,7-7s7,3.14,7,7s-3.14,7-7,7H10   C6.14,45,3,41.86,3,38z"></path><path d="M38,35c-1.654,0-3,1.346-3,3s1.346,3,3,3s3-1.346,3-3S39.654,35,38,35z M38,39c-0.551,0-1-0.449-1-1s0.449-1,1-1   s1,0.449,1,1S38.551,39,38,39z"></path><path d="M30,35c-1.654,0-3,1.346-3,3s1.346,3,3,3s3-1.346,3-3S31.654,35,30,35z M30,39c-0.551,0-1-0.449-1-1s0.449-1,1-1   s1,0.449,1,1S30.551,39,30,39z"></path><path d="M22,35c-1.654,0-3,1.346-3,3s1.346,3,3,3s3-1.346,3-3S23.654,35,22,35z M22,39c-0.551,0-1-0.449-1-1s0.449-1,1-1   s1,0.449,1,1S22.551,39,22,39z"></path><path d="M51,20h2c0-3.309-2.691-6-6-6v2C49.206,16,51,17.794,51,20z"></path><path d="M55,20h2c0-5.514-4.486-10-10-10v2C51.411,12,55,15.589,55,20z"></path><path d="M59,20h2c0-7.72-6.28-14-14-14v2C53.617,8,59,13.383,59,20z"></path></g></svg>