<svg height="512" viewBox="0 0 512 512" width="512" xmlns="http://www.w3.org/2000/svg"><g id="Fill_out_line" data-name="Fill out line"><path d="m56 56h400v400h-400z" fill="#65dcff"/><path d="m40 224 96 96 184-184-88-88h-192z" fill="#a0eaff"/><path d="m248 336v64a16 16 0 0 0 16 16 16 16 0 0 0 16-16v-96z" fill="#57c1ff"/><path d="m88 272v112a16 16 0 0 0 16 16 16 16 0 0 0 16-16 16 16 0 0 1 16-16 16 16 0 0 1 16 16v24a16 16 0 0 0 16 16 16 16 0 0 0 16-16v-40z" fill="#57c1ff"/><path d="m24 24v464h464v-464zm432 432h-400v-400h400z" fill="#a1764a"/><path d="m109.892 223.029h260.215v33.941h-260.215z" fill="#808080" transform="matrix(.707 -.707 .707 .707 -99.411 240)"/><path d="m141.892 243.716h260.215v56.569h-260.215z" fill="#ff6f35" transform="matrix(.707 -.707 .707 .707 -112.666 272)"/><path d="m240 312 8 8 72 16 24-24-16-72-8-8z" fill="#e05e1d"/><path d="m488 456v32h-16l-152-152 24-24z" fill="#ff6f35"/><path d="m488 488h-96l-4.8-24-3.2-16h-17.93994a35.70867 35.70867 0 0 1 -31.93018-19.73l-23.77-47.55029a19.72433 19.72433 0 0 1 31.59012-22.76951l26.05 26.0498a16.15766 16.15766 0 0 0 11.5 4.77979 16.32734 16.32734 0 0 0 11.3501-4.56006 16.12112 16.12112 0 0 0 3.27-4.46l.61987-1.25a16.30535 16.30535 0 0 0 -3.05-18.81983l-47.68997-47.6899 27.48-10.99023a24.01088 24.01088 0 0 1 23.31 3.08007l20.36987 15.28028.84013.62988h11.17993a22.6619 22.6619 0 0 1 3.98.33984 23.97414 23.97414 0 0 1 19.78 20.27l13.06007 91.39016z" fill="#f2e368"/><path d="m416 176v72a16 16 0 0 1 -16 16 16 16 0 0 1 -16-16v-24z" fill="#57c1ff"/><path d="m360 96v16a16 16 0 0 0 16 16 16 16 0 0 0 16-16v-56z" fill="#57c1ff"/><path d="m488 16h-464a8.00039 8.00039 0 0 0 -8 8v464a8.00039 8.00039 0 0 0 8 8h336v-16h-328v-448h448v384h16v-392a8.00039 8.00039 0 0 0 -8-8z"/><path d="m464 304v-248a8.00039 8.00039 0 0 0 -8-8h-400a8.00039 8.00039 0 0 0 -8 8v400a8.00039 8.00039 0 0 0 8 8h264v-16h-256v-188.68555l10.34277 10.34278 11.31446-11.31446-21.65723-21.65722v-172.68555h172.68555l21.65722 21.65723 11.31446-11.31446-10.34278-10.34277h188.68555v240z"/><path d="m458.86328 339.47461a32.15641 32.15641 0 0 0 -31.67871-27.47461h-8.51757l-19.07715-14.30664a32.1991 32.1991 0 0 0 -31.085-4.11231l-18.7373 7.49512-10.09619-45.4331 49.98584-49.98584a8.00122 8.00122 0 0 0 0-11.31446l-64-64a8.003 8.003 0 0 0 -11.31446 0l-184 184a8.00122 8.00122 0 0 0 0 11.31446l64 64a8.00181 8.00181 0 0 0 11.31446 0l57.98584-57.98584 52.34646 11.63281 2.54151 2.5415a27.70389 27.70389 0 0 0 -15.32886 38.4483l23.77539 47.55078a43.46315 43.46315 0 0 0 39.08496 24.15522h11.37891l6.71386 33.56934 15.68946-3.13868-6.08619-30.43066h22.24146v-16h-49.9375a27.549 27.549 0 0 1 -24.77441-15.31152l-23.77539-47.55078a11.72453 11.72453 0 0 1 18.7773-13.53321l20.39555 20.39551-10.34278 10.34277 11.31446 11.31446 10.34228-10.34323 26.34326 26.34327 11.31446-11.31446-8-8-7.83716-7.83691a24.04334 24.04334 0 0 0 11.45434-11.166l.624-1.248a24.27741 24.27741 0 0 0 -4.55274-28.06055l-39.11035-39.10937 16.21192-6.48536a16.1041 16.1041 0 0 1 15.543 2.05664l21.21 15.90723a8.0033 8.0033 0 0 0 4.79976 1.59951h11.18457a16.07728 16.07728 0 0 1 15.83887 13.7373l13.05664 91.39454a8.02019 8.02019 0 0 0 .5664 2.01953l24 56 14.707-6.30274-23.584-55.02734zm-141.41553-12.23682-65.438-14.5415-.69627-.69629 68.68652-68.68652.69629.69629 14.5415 65.438zm-170.13427-7.23779 172.68652-172.68652 12.68652 12.68652-172.68652 172.68652zm52.68652 52.68652-28.68555-28.68652 172.68555-172.68555 28.68652 28.68555-37.1958 37.19507a8.00777 8.00777 0 0 0 -1.83349-2.8523l-8-8a8.003 8.003 0 0 0 -11.31446 0l-80 80a8.00122 8.00122 0 0 0 0 11.31446l8 8a8.00777 8.00777 0 0 0 2.8523 1.83349zm186.03125-7.34082a8.29651 8.29651 0 0 1 1.55664 9.58985l-.624 1.248a8.30913 8.30913 0 0 1 -13.30664 2.15918l-26.05276-26.05273-16.29101-16.29 12.68652-12.68555z"/><path d="m99.999 275.029h16.001v33.941h-16.001z" transform="matrix(.707 -.707 .707 .707 -174.843 161.892)"/><path d="m283.999 91.029h16.001v33.941h-16.001z" transform="matrix(.707 -.707 .707 .707 9.157 238.108)"/><path d="m136 360a24.0275 24.0275 0 0 0 -24 24 8 8 0 0 1 -16 0v-64h-16v64a24 24 0 0 0 48 0 8 8 0 0 1 16 0v24a24 24 0 0 0 48 0h-16a8 8 0 0 1 -16 0v-24a24.0275 24.0275 0 0 0 -24-24z"/><path d="m376 240v8a24 24 0 0 0 48 0v-80h-16v80a8 8 0 0 1 -16 0v-8z"/><path d="m240 392v8a24 24 0 0 0 48 0v-40h-16v40a8 8 0 0 1 -16 0v-8z"/><path d="m400 80h-16v32a8 8 0 0 1 -16 0h-16a24 24 0 0 0 48 0z"/></g></svg>