<svg height="512" viewBox="0 0 62 60" width="512" xmlns="http://www.w3.org/2000/svg"><g id="035---Lawn-Mower" fill="none"><g id="Icons" transform="translate(2 1)"><path id="Shape" d="m35 32v7h-12c0-7.63 0-7 .11-7 1.1588341.0174635 2.1413576-.8481959 2.27-2h7.25c.0925362.5483354.3631527 1.050909.77 1.43.4272371.4101347 1.0096837.6176313 1.6.57z" fill="#6d4122"/><path id="Shape" d="m33 30.93v8.07h-10c0-7.63 0-7 .11-7 1.1588341.0174635 2.1413576-.8481959 2.27-2h7.25c.0529274.3335787.1793055.6512318.37.93z" fill="#91562d"/><path id="Shape" d="m38.84 23.93-2-5.9c-.4149776-1.2144966-1.5565639-2.0304896-2.84-2.03h-10c-1.2719262-.0006668-2.4060247.8008163-2.83 2l-2 5.9c-.2287638.6470418-.2287638 1.3529582 0 2 2 5.14 1.79 4.67 1.87 4.79.4252527.9323977 1.420339 1.4665102 2.432423 1.3056028 1.0120841-.1609074 1.7924597-.9772937 1.907577-1.9956028h7.25c.0925362.5483354.3631527 1.050909.77 1.43.5296987.4712606 1.2505362.6652884 1.9452235.5235958s1.2819547-.6025294 1.5847765-1.2435958c.08-.13-.11.35 1.87-4.79.2394067-.6394528.2535171-1.3414432.04-1.99z" fill="#02a9f4"/><path id="Shape" d="m38.84 23.93-2-5.9c-.4149776-1.2144966-1.5565639-2.0304896-2.84-2.03l-3-.0000004c1.2719262-.0006664 2.4060247.8008167 2.83 2.0000004l2 5.9c.2287638.6470418.2287638 1.3529582 0 2-1.93 5-1.81 4.95-2.43 5.49.5296987.4712606 1.2505362.6652884 1.9452235.5235958s1.2819547-.6025294 1.5847765-1.2435958c.08-.13-.11.35 1.87-4.79.2301534-.6274015.2442311-1.313688.04-1.95z" fill="#0377bc"/><path id="Shape" d="m58 12c0 2.209139-1.790861 4-4 4h-12.5c-1.9329966 0-3.5-1.5670034-3.5-3.5s1.5670034-3.5 3.5-3.5c.1943503.00132451.3882903.01804348.58.05.3752935-2.3516071 2.1058005-4.25869647 4.41-4.86.4937143-.12460778 1.0008062-.18841405 1.51-.19 1.7981925.00098164 3.5011449.80841596 4.64 2.2.4414009.54069659.7802987 1.15749046 1 1.82h.36c2.201352-.00002752 3.9889932 1.77867549 4 3.98z" fill="#707070"/><path id="Shape" d="m55 12c0 2.209139-1.790861 4-4 4h-9.5c-1.9329966 0-3.5-1.5670034-3.5-3.5s1.5670034-3.5 3.5-3.5c.1943503.00132451.3882903.01804348.58.05.3752935-2.3516071 2.1058005-4.25869647 4.41-4.86 1.2358761.31493783 2.3392481 1.01549149 3.15 2 .4414009.54069659.7802987 1.15749046 1 1.82h.36c2.2052396-.00000689 3.9944869 1.78476725 4 3.99z" fill="#9e9e9e"/><path id="Shape" d="m34 6c0 3.31-2.24 6-5 6-.5117697-.003467-1.0191433-.0947942-1.5-.27-2.2262022-1.0173159-3.6112874-3.28489816-3.5-5.73-.1112874-2.44510184 1.2737978-4.71268415 3.5-5.73.4808567-.17520575.9882303-.26653299 1.5-.27 2.76 0 5 2.69 5 6z" fill="#dfc49c"/><ellipse id="Oval" cx="27.5" cy="6" fill="#ffe0b2" rx="3.5" ry="5.73"/><path id="Shape" d="m20 8.5c0 1.9329966-1.5670034 3.5-3.5 3.5h-12.5c-2.20913897 0-3.99999992-1.790861-3.99999992-4 0-2.20913897 1.79086095-3.99999995 3.99999992-4h.34c.65826453-1.8884033 2.22116258-3.31980752 4.16-3.81.49030083-.1246889.99409488-.18850282 1.5-.19 2.9453541.00211798 5.4536529 2.14179853 5.92 5.05.1930322-.01525923.3869678-.01525923.58 0 1.9136376-.00019528 3.4726623 1.53655769 3.5 3.45z" fill="#707070"/><path id="Shape" d="m17 8.5c0 1.9329966-1.5670034 3.5-3.5 3.5h-9.5c-2.20913897 0-3.99999992-1.790861-3.99999992-4 0-2.20913897 1.79086095-3.99999995 3.99999992-4h.34c.65826453-1.8884033 2.22116258-3.31980752 4.16-3.81 2.3080983.59789357 4.0431691 2.5056863 4.42 4.86.1930322-.01525923.3869678-.01525923.58 0 1.9136376-.00019528 3.4726623 1.53655769 3.5 3.45z" fill="#9e9e9e"/><path id="Shape" d="m41 53h-24v-4.19c.0013034-.531935.1066128-1.0584818.31-1.55l1.79-4.26 1.31-3.11c.370262-.554962.9928604-.8887648 1.66-.89h13.86c.6671396.0012352 1.289738.335038 1.66.89l1.31 3.11 1.79 4.26c.2033872.4915182.3086966 1.018065.31 1.55z" fill="#f44335"/><path id="Shape" d="m40.69 47.26-1.79-4.26-1.31-3.11c-.370262-.554962-.9928604-.8887648-1.66-.89h-3c.6671396.0012352 1.289738.335038 1.66.89l1.31 3.11 1.79 4.26c.2033872.4915182.3086966 1.018065.31 1.55v4.19h3v-4.19c-.0013034-.531935-.1066128-1.0584818-.31-1.55z" fill="#c81e1e"/><g fill="#37474f"><rect id="Rectangle-path" height="11" rx="2" width="6" x="11" y="47"/><rect id="Rectangle-path" height="11" rx="2" width="6" x="41" y="47"/></g></g><g id="Layer_10" fill="#000"><path id="Shape" d="m56.33 8c-1.2524526-2.59567362-3.9677853-4.1584237-6.841337-3.93738126s-5.3179305 2.1806934-6.158663 4.93738126c-2.4852814.0579899-4.4529899 2.1197186-4.395 4.605s2.1197186 4.4529899 4.605 4.395h12.46c2.7614237.091127 5.073873-2.0735763 5.165-4.835s-2.0735763-5.07387302-4.835-5.165zm-.33 8h-12.5c-.893164-.0768121-1.6775028-.6242867-2.0575636-1.4361955-.3800607-.8119087-.2981032-1.7649033.215-2.5.5131033-.7350966 1.3793996-1.1406166 2.2725636-1.0638045.5435979.08394 1.0529357-.2868937 1.14-.83.3307144-2.05132843 1.8956239-3.68433968 3.9310135-4.10208338 2.0353895-.41774371 4.1170132.46685244 5.2289865 2.22208338-.9958079.37208814-1.8446697 1.05608841-2.42 1.95-.2634624.4618613-.1194165 1.0491348.3278566 1.3366675s1.041346.1747642 1.3521434-.2566675c.4987098-.747199 1.3060198-1.2315849 2.2-1.32h.23c.8094184-.02159222 1.593195.2849203 2.1732272.8498867s.9070607 1.340407.9067728 2.1501133c0 1.6568542-1.3431458 3-3 3z"/><path id="Shape" d="m31 14c3.31 0 6-3.14 6-7s-2.69-7-6-7-6 3.14-6 7 2.69 7 6 7zm0-12c2.21 0 4 2.24 4 5s-1.79 5-4 5-4-2.24-4-5 1.79-5 4-5z"/><path id="Shape" d="m22.23 18.71-2 5.9c-.2989169.868017-.2812059 1.8137831.05 2.67 1.93 5 1.82 4.92 2.33 5.52-2.61 11.89-2.16 10.2-2.43 10.81l-1.61 3.84c-1-.59-1.69-.45-3.57-.45-1.6568542 0-3 1.3431458-3 3 0 7.81-.06 7.31.18 8h-4.18c-.55228475 0-1 .4477153-1 1s.44771525 1 1 1h46c.5522847 0 1-.4477153 1-1s-.4477153-1-1-1h-4.18c.24-.7.18-.21.18-8 0-1.6568542-1.3431458-3-3-3-1.85 0-2.62-.13-3.57.45-.21-.52-1.65-3.93-1.8-4.3l-2.22-10.35c.5-.6.36-.42 2.33-5.52.3150026-.8621274.3150026-1.8078726 0-2.67l-2-5.9c-.5465405-1.6045237-2.0450614-2.6903504-3.74-2.71h-10c-1.7059934.0069474-3.2198267 1.0951405-3.77 2.71zm5.94 13.29h5.66c.6211732 1.4723021 2.215452 2.2800136 3.77 1.91l1.12 5.2c-.59-.11-.33-.11-6.72-.11v-2c0-.5522847-.4477153-1-1-1s-1 .4477153-1 1v2c-6.5 0-6.17 0-6.72.11l1.12-5.21c1.5519273.3713742 3.1452631-.4316332 3.77-1.9zm14 26h-22.35c.26-.74.18-1.14.18-3h22c0 2.1-.06 2.32.18 3zm-27.17 0c-.5522847 0-1-.4477153-1-1v-7c0-.5522847.4477153-1 1-1h2c.5522847 0 1 .4477153 1 1v7c0 .5522847-.4477153 1-1 1zm30-9h2c.5522847 0 1 .4477153 1 1v7c0 .5522847-.4477153 1-1 1h-2c-.5522847 0-1-.4477153-1-1v-7c0-.5522847.4477153-1 1-1zm-3 1v3h-22c0-4.7-.33-3 1.76-8h3.24c.5522847 0 1-.4477153 1-1s-.4477153-1-1-1h-2.4l.68-1.62c.1908221-.241492.4822197-.381658.79-.38h13.86c.3077803-.001658.5991779.138508.79.38l.68 1.62h-10.4c-.5522847 0-1 .4477153-1 1s.4477153 1 1 1h11.24c1.76 4.11 1.76 3.93 1.76 5zm-16-32h10c.8535235.0006095 1.612605.5428106 1.89 1.35l2 5.91c.1503324.420295.1503324.879705 0 1.3l-1.78 4.62c-.1234463.3358103-.3859243.6019338-.72.73-.4567012.1913227-.982611.1043498-1.3534005-.2238202s-.5210159-.8396164-.3865995-1.3161798l1.35-3.84c.25-.74.1-.89-.91-4.81-.1732186-.4861057-.6878829-.7605728-1.1880604-.6335848-.5001774.1269881-.8215835.6137218-.7419396 1.1235848l.94 3.68c-1.58 4.64-1.28 3.71-1.38 4.11h-5.39c-.3714731-1.3889422-.8154141-2.7574822-1.33-4.1l.94-3.69c.1353098-.5357162-.1892838-1.0796902-.725-1.215s-1.0796902.1892838-1.215.725l-1 3.68c-.19.76-.06.82 1.36 5 .143334.4779065-.0040912.9955453-.3777122 1.3262213-.3736209.3306761-.9053369.4141162-1.3622878.2137787-.3340757-.1280662-.5965537-.3941897-.72-.73l-1.78-4.62c-.1503324-.420295-.1503324-.879705 0-1.3l2-5.91c.2658734-.8155734 1.0222334-1.3707738 1.88-1.38z"/><path id="Shape" d="m25 49h-2c-.5522847 0-1 .4477153-1 1s.4477153 1 1 1h2c.5522847 0 1-.4477153 1-1s-.4477153-1-1-1z"/><path id="Shape" d="m31 49h-2c-.5522847 0-1 .4477153-1 1s.4477153 1 1 1h2c.5522847 0 1-.4477153 1-1s-.4477153-1-1-1z"/><path id="Shape" d="m9 36c0 .5522847.44771525 1 1 1h5c.5522847 0 1-.4477153 1-1s-.4477153-1-1-1h-5c-.55228475 0-1 .4477153-1 1z"/><path id="Shape" d="m17.71 31.29-3-3c-.2536586-.2536586-.623374-.3527235-.969878-.259878-.3465041.0928454-.6171546.3634959-.71.71-.0928455.346504.0062194.7162194.259878.969878l3 3c.2536586.2536586.623374.3527235.969878.259878.3465041-.0928454.6171546-.3634959.71-.71.0928455-.346504-.0062194-.7162194-.259878-.969878z"/><path id="Shape" d="m16.29 39.29-3 3c-.3921221.3921222-.3921221 1.0278778 0 1.42.3921222.3921221 1.0278778.3921221 1.42 0l3-3c.3921221-.3921222.3921221-1.0278778 0-1.42-.3921222-.3921221-1.0278778-.3921221-1.42 0z"/><path id="Shape" d="m46 36c0 .5522847.4477153 1 1 1h5c.5522847 0 1-.4477153 1-1s-.4477153-1-1-1h-5c-.5522847 0-1 .4477153-1 1z"/><path id="Shape" d="m47.29 28.29-3 3c-.3921221.3921222-.3921221 1.0278778 0 1.42.3921222.3921221 1.0278778.3921221 1.42 0l3-3c.2536586-.2536586.3527235-.623374.259878-.969878-.0928454-.3465041-.3634959-.6171546-.71-.71-.346504-.0928455-.7162194.0062194-.969878.259878z"/><path id="Shape" d="m44.29 40.71 3 3c.1887188.1871865.444197.2915368.71.29.4062651.0023626.77358-.2413038.929371-.6165185.1557909-.3752147.0690889-.807391-.219371-1.0934815l-3-3c-.3921222-.3921221-1.0278778-.3921221-1.42 0-.3921221.3921222-.3921221 1.0278778 0 1.42z"/><path id="Shape" d="m18.71 5c-.8407325-2.75668786-3.2851113-4.71633882-6.158663-4.93738126-2.87355169-.22104244-5.58888436 1.34170764-6.841337 3.93738126-2.76142375.08008129-4.93508129 2.38357625-4.855 5.145.08008129 2.7614237 2.38357625 4.9350813 5.145 4.855h12.5c2.4852813.0579899 4.54701-1.9097187 4.6049999-4.395.0579899-2.48528135-1.9097186-4.54701006-4.3949999-4.605zm-.21 7h-12.5c-1.43549305.0009812-2.67052359-1.015083-2.94620714-2.42385549-.27568354-1.40877246.48524373-2.81542685 1.81521774-3.35562163s2.85625268-.0625335 3.6409894 1.13947712c.31079736.43143169.90487027.54420021 1.35214339.25666749.44727311-.28753271.59131901-.87480619.32785661-1.33666749-.57533028-.89391159-1.42419215-1.57791186-2.42-1.95 1.11197334-1.75523094 3.193597-2.63982709 5.2289865-2.22208338 2.0353896.4177437 3.6002991 2.05075495 3.9310135 4.10208338.1059708.52688979.609451.87579276 1.14.79.893164-.07681212 1.7594603.32870787 2.2725636 1.06380452.5131032.73509665.5950607 1.68809128.215 2.49999998-.3800608.8119088-1.1643996 1.3593834-2.0575636 1.4361955z"/><path id="Shape" d="m2 60h2c.55228475 0 1-.4477153 1-1s-.44771525-1-1-1h-2c-.55228475 0-1 .4477153-1 1s.44771525 1 1 1z"/><path id="Shape" d="m60 58h-2c-.5522847 0-1 .4477153-1 1s.4477153 1 1 1h2c.5522847 0 1-.4477153 1-1s-.4477153-1-1-1z"/></g></g></svg>