<svg id="Layer_3" enable-background="new 0 0 64 64" height="512" viewBox="0 0 64 64" width="512" xmlns="http://www.w3.org/2000/svg"><g><path d="m55 62h-34c-3.314 0-6-2.686-6-6 0-3.314 2.686-6 6-6h34c3.314 0 6 2.686 6 6 0 3.314-2.686 6-6 6z" fill="#534f44"/><g><path d="m33 50h2v3h-2z" fill="#7f786b"/></g><g><path d="m29 50h2v3h-2z" fill="#7f786b"/></g><g><path d="m25 50h2v3h-2z" fill="#7f786b"/></g><g><path d="m45 50h2v3h-2z" fill="#7f786b"/></g><g><path d="m41 50h2v3h-2z" fill="#7f786b"/></g><g><path d="m53 50h2v3h-2z" fill="#7f786b"/></g><g><path d="m37 50h2v3h-2z" fill="#7f786b"/></g><g><path d="m21 50h2v3h-2z" fill="#7f786b"/></g><g><path d="m33 59h2v3h-2z" fill="#7f786b"/></g><g><path d="m29 59h2v3h-2z" fill="#7f786b"/></g><g><path d="m25 59h2v3h-2z" fill="#7f786b"/></g><g><path d="m45 59h2v3h-2z" fill="#7f786b"/></g><g><path d="m41 59h2v3h-2z" fill="#7f786b"/></g><g><path d="m37 59h2v3h-2z" fill="#7f786b"/></g><g><path d="m21 59h2v3h-2z" fill="#7f786b"/></g><g fill="#7f786b"><path d="m59.887 59.473-2.475-2.475-1.415 1.415 2.475 2.475c.548-.39 1.026-.868 1.415-1.415z"/><path d="m57.646 56.999h3.265c.054-.326.089-.658.089-.999 0-.342-.035-.674-.09-1h-3.264z"/><path d="m58.472 51.112-2.623 2.623 1.415 1.415 2.624-2.624c-.391-.546-.869-1.024-1.416-1.414z"/><path d="m16.112 59.472c.389.547.867 1.025 1.414 1.415l2.566-2.566-1.415-1.415z"/><path d="m15 56c0 .341.035.673.09.999h3.91v-2h-3.91c-.055.327-.09.659-.09 1.001z"/><path d="m16.113 52.527 2.565 2.565 1.415-1.415-2.565-2.565c-.548.39-1.026.868-1.415 1.415z"/></g><g><path d="m53 59h2v3h-2z" fill="#7f786b"/></g><g><path d="m49 50h2v3h-2z" fill="#7f786b"/></g><g><path d="m49 59h2v3h-2z" fill="#7f786b"/></g><path d="m55 59h-34c-1.657 0-3-1.343-3-3 0-1.657 1.343-3 3-3h34c1.657 0 3 1.343 3 3 0 1.657-1.343 3-3 3z" fill="#fff"/><g><path d="m21 55h4v2h-4z" fill="#7f786b"/></g><g><path d="m27 55h6v2h-6z" fill="#7f786b"/></g><g><path d="m35 55h6v2h-6z" fill="#7f786b"/></g><g><path d="m43 55h6v2h-6z" fill="#7f786b"/></g><g><path d="m51 55h4v2h-4z" fill="#7f786b"/></g><g><path d="m26 57.999c-1.103 0-2-.897-2-2s.897-2 2-2 2 .897 2 2-.897 2-2 2zm0-2.001v.002z" fill="#625d51"/></g><g><path d="m34 57.999c-1.103 0-2-.897-2-2s.897-2 2-2 2 .897 2 2-.897 2-2 2zm0-2.001v.002z" fill="#625d51"/></g><g><path d="m42 57.999c-1.103 0-2-.897-2-2s.897-2 2-2 2 .897 2 2-.897 2-2 2zm0-2.001v.002z" fill="#625d51"/></g><g><path d="m50 57.999c-1.103 0-2-.897-2-2s.897-2 2-2 2 .897 2 2-.897 2-2 2zm0-2.001v.002z" fill="#625d51"/></g><path d="m27 46h22v4h-22z" fill="#9e968d"/><path d="m50 32v-2c0-2.209 1.791-4 4-4h2v3h-2c-.552 0-1 .448-1 1v2" fill="#cbc3b6"/><path d="m48 36v-4h8v4" fill="#625d51"/><path d="m60 46h-16v-10h13c2.761 0 5 2.239 5 5v3c0 1.105-.895 2-2 2z" fill="#f7d881"/><path d="m44 46h-22c-1.105 0-2-.895-2-2 0-1.105.895-2 2-2h22z" fill="#625d51"/><path d="m44 42h-22v-12c0-5.523 4.477-10 10-10h10c1.105 0 2 .895 2 2z" fill="#f2c351"/><path d="m13 44v5l3-4v-5l-4-3h-6l-4 3v5l3 4v-5l2-2h4z" fill="#f2c351"/><path d="m30.781 16.219 2.219-2.219-1-4-4-2-1 2h-3l-.8 1.6 5.222 2.611c.956.478 1.758 1.173 2.359 2.008z" fill="#f2c351"/><path d="m24.929 22.929c1.81-1.81 4.31-2.929 7.071-2.929 0-2.451-1.385-4.693-3.578-5.789l-18.422-9.211-.092.028 2.092 6.972 13 11z" fill="#f7d881"/><path d="m29 35h9c1.105 0 2-.895 2-2v-8c0-1.105-.895-2-2-2h-13.136c-1.77 1.804-2.864 4.273-2.864 7v12h4v-4c0-1.657 1.343-3 3-3z" fill="#c7e2fc"/><path d="m11 32 1-20-2.416-8.054c-.347-1.155-1.41-1.946-2.616-1.946-1.175 0-2.219.752-2.59 1.867-1.555 4.663-1.775 9.666-.637 14.447l3.259 13.686" fill="#f2c351"/><g><path d="m6.5 7.998c-.827 0-1.5-.673-1.5-1.499 0-.827.673-1.5 1.5-1.5s1.5.673 1.5 1.5c0 .826-.673 1.499-1.5 1.499zm0-1.999c-.276 0-.5.224-.5.5 0 .275.224.499.5.499.275 0 .5-.224.5-.499 0-.276-.225-.5-.5-.5z" fill="#625d51"/></g><g><path d="m27.5 18.998c-.827 0-1.5-.673-1.5-1.499 0-.827.673-1.5 1.5-1.5s1.5.673 1.5 1.5c0 .826-.673 1.499-1.5 1.499zm0-1.999c-.276 0-.5.224-.5.5 0 .275.224.499.5.499.275 0 .5-.224.5-.499 0-.276-.225-.5-.5-.5z" fill="#625d51"/></g><g><path d="m35 37.999h4.999v1.999h-4.999z" fill="#625d51"/></g><g><path d="m46 37.999h2v5.999h-2z" fill="#625d51"/></g><g><path d="m49 37.999h2v5.999h-2z" fill="#625d51"/></g><g><path d="m52 37.999h2v5.999h-2z" fill="#625d51"/></g><path d="m6 54-4 3 3 3v2l7-1-2-3 2-3z" fill="#9e968d"/><path d="m12 37h-6v-3c0-1.657 1.343-3 3-3 1.657 0 3 1.343 3 3z" fill="#534f44"/><path d="m22 30v12h4v-4c0-1.657 1.343-3 3-3h6.948c.464-1.36.728-2.813.728-4.331 0-2.854-.898-5.494-2.417-7.669h-9.395c-1.77 1.804-2.864 4.273-2.864 7z" fill="#ebf7fe"/><g><path d="m57 34.999-.001-3c0-.553-.447-1-1-1h-2v-1.001h2c.553 0 1-.447 1-.999v-3c0-.553-.447-1-1-1h-2c-2.757 0-5 2.242-5 4.999v1.001h-1c-.553 0-1 .447-1 1v3h-2v-13c0-1.654-1.346-3-3-3h-9.069c-.125-.94-.434-1.826-.883-2.633l1.66-1.66c.248-.249.348-.609.263-.95l-1-4c-.071-.283-.262-.521-.523-.651l-4-2c-.057-.029-.118-.032-.178-.049l.005-.019-19.502-5.571c-.538-.297-1.153-.466-1.805-.466-1.608 0-3.03 1.024-3.539 2.551-1.614 4.843-1.843 10.027-.66 14.994l3.095 13.001c-.532.68-.863 1.524-.863 2.453v2.499l-3.6 2.7c-.253.19-.4.486-.4.801v4.999c0 .217.07.428.2.601l3 4c.258.345.71.486 1.116.349.408-.136.684-.519.684-.95v-4.585l1.414-1.414h3.171l1.414 1.414v4.585c0 .431.276.813.684.949.104.034.21.052.316.052.309 0 .608-.144.8-.4l3-4c.13-.173.2-.384.2-.601v-4.999c0-.315-.148-.611-.4-.801l-3.6-2.7v-2.499c0-.988-.374-1.882-.969-2.581l.867-17.35 10.596 8.967c-1.557 1.897-2.493 4.323-2.493 6.964v11.184c-1.161.414-2 1.514-2 2.817 0 1.653 1.346 2.998 3 2.998h4v2.001h-5.001c-3.859 0-6.999 3.14-6.999 7.001 0 3.858 3.14 6.998 6.999 6.998h34c3.86 0 7-3.14 7-6.999 0-3.86-3.14-7-7-7h-5v-2.001h10c1.654 0 3-1.346 3-2.999l.001-3c0-3.309-2.692-6-6-6zm1.433 23.018c.186-.316.33-.656.425-1.019h1.04c-.13.637-.384 1.229-.732 1.753zm.425-3.018c-.094-.363-.238-.704-.425-1.019l.733-.733c.347.524.602 1.116.732 1.753h-1.04zm-1.858 1.001c0 1.102-.897 1.998-2 1.998h-5-8-8-8-5c-1.103 0-2-.896-2-1.999 0-1.104.897-2 2-2h5 8 8 8 5c1.103 0 2 .897 2 2.001zm-32 3.998v1h-2v-1zm2 0h2v1h-2zm4 0h2v1h-2zm3.999 0h2.001v1h-2.001zm4.001 0h2v1h-2zm4 0h2v1h-2zm3.999 0h2v1h-2zm4 0h2.001v1h-2.001zm-33.433-6.018c-.186.316-.33.656-.425 1.019h-1.041c.13-.637.384-1.228.732-1.753zm-.425 3.018c.094.363.238.704.425 1.019l-.733.733c-.348-.524-.602-1.116-.732-1.753h1.04zm25.859-4.999v-1h2v1zm-12 0v-1h2v1zm3.999-1h2.001v1h-2.001zm4.001 0h2v1h-2zm-10 0v1h-2v-1zm-4 1h-2v-1h2zm25.999 0v-1h2.001v1zm-1.999 0h-2v-1h2zm-28-1v1c-.739 0-1.424.215-2.018.566l-.734-.734c.79-.523 1.734-.832 2.752-.832zm-2.753 9.167.734-.734c.595.351 1.279.566 2.018.566v1h-.001c-1.016 0-1.96-.309-2.751-.832zm36.753-.168c.74 0 1.424-.215 2.019-.566l.734.734c-.79.524-1.735.832-2.753.832zm2.752-8.166-.734.734c-.595-.351-1.279-.566-2.018-.566v-1c1.017-.001 1.961.308 2.752.832zm-6.752-21.834c0-1.653 1.346-2.999 3-2.999h1v1h-1c-1.103 0-2 .896-2 1.999v1.001h-1zm-2 3.001h6v2h-6zm-6.001-11v18.999h-15.999v-3c0-1.103.897-2 2-2h9c1.654 0 3-1.346 3-3v-7.999c0-1.654-1.345-3-2.999-3h-10.106c1.232-.635 2.625-1 4.105-1h10c.551 0 .999.448.999 1zm-30.127-10.572-1.367-4.558 16.47 8.237c1.578.788 2.642 2.254 2.935 3.949-2.277.225-4.349 1.151-6.006 2.554zm10.233-1.875-.353.706-12.036-6.019-.046-.151 15.897 4.541-.185.37h-2.382c-.379 0-.725.214-.895.553zm8.036 1.136.751 3.004-1.06 1.06c-.565-.569-1.217-1.063-1.963-1.435l-4.328-2.164.077-.153h2.382c.378 0 .725-.215.894-.554l.553-1.105zm-25.815-6.505c.236-.708.896-1.183 1.641-1.183.771 0 1.437.495 1.658 1.232l2.366 7.889-.902 18.048c-.349-.1-.71-.17-1.09-.17-.489 0-.952.101-1.386.262l-2.9-12.18c-1.095-4.603-.883-9.409.613-13.898zm5.673 31.815h-3.999v-1.999c0-1.104.897-2 2-2 1.102 0 1.999.896 1.999 2zm4 8.667-1 1.333v-2c0-.265-.105-.52-.292-.707l-2-2c-.188-.188-.442-.292-.708-.292h-3.999c-.266 0-.52.104-.708.292l-2 2c-.188.188-.292.442-.292.707v2l-1-1.333v-4.166l3.333-2.5h5.333l3.333 2.5zm8.001-14.666c0-2.306.879-4.406 2.311-6h12.689c.551 0 .999.448.999 1v7.999c0 .552-.448 1-1 1h-9c-2.206 0-4 1.795-4 4v3h-2v-10.999zm-2 14c0-.552.448-1 1-1h21v1.999h-21c-.552 0-1-.448-1-.999zm27 3v1.999h-20v-1.999zm12.999-3.001c0 .552-.448 1-1 1h-14.999v-7.999h12c2.206 0 4 1.794 4 3.999z"/><path d="m8 6.499c0-.827-.673-1.5-1.5-1.5s-1.5.673-1.5 1.5c0 .826.673 1.499 1.5 1.499s1.5-.673 1.5-1.499zm-1.5.499c-.276 0-.5-.224-.5-.499 0-.276.224-.5.5-.5.275 0 .5.224.5.5 0 .275-.225.499-.5.499z"/><path d="m27.5 18.998c.827 0 1.5-.673 1.5-1.499 0-.827-.673-1.5-1.5-1.5s-1.5.673-1.5 1.5c0 .826.673 1.499 1.5 1.499zm0-1.999c.275 0 .5.224.5.5 0 .275-.224.499-.5.499s-.5-.224-.5-.499c0-.276.224-.5.5-.5z"/><path d="m51.722 56.998h3.277v-1.999h-3.277c-.347-.595-.985-1-1.722-1s-1.375.405-1.722 1h-4.556c-.347-.595-.985-1-1.722-1s-1.375.405-1.722 1h-4.556c-.347-.595-.985-1-1.722-1s-1.375.405-1.722 1h-4.556c-.347-.595-.985-1-1.722-1s-1.375.405-1.722 1h-3.278v1.999h3.278c.347.595.985 1 1.722 1s1.375-.405 1.722-1h4.556c.347.595.985 1 1.722 1s1.375-.405 1.722-1h4.556c.347.595.985 1 1.722 1s1.375-.405 1.722-1h4.556c.347.595.985 1 1.722 1s1.375-.405 1.722-1z"/><path d="m35 37.999h5v1.999h-5z"/><path d="m46 37.999h2v5.999h-2z"/><path d="m49 37.999h2v5.999h-2z"/><path d="m52 37.999h2v5.999h-2z"/><path d="m11.201 57.999 1.63-2.445c.188-.283.22-.642.085-.953s-.418-.532-.753-.589l-6-1c-.267-.041-.545.021-.764.187l-4 3c-.232.174-.377.44-.397.729s.085.573.29.778l2.708 2.707v1.585c0 .29.125.566.345.756.183.159.416.245.655.245.047 0 .095-.004.142-.011l7-1c.34-.049.631-.268.771-.582.14-.313.11-.677-.081-.963zm-2.034.555 1.12 1.68-4.287.612v-.848c0-.265-.105-.52-.293-.707l-2.185-2.185 2.735-2.051 4.053.675-1.143 1.713c-.224.336-.224.775 0 1.111z"/></g></g></svg>