<svg height='300px' width='300px'  fill="#000000" xmlns="http://www.w3.org/2000/svg" xmlns:xlink="http://www.w3.org/1999/xlink" version="1.1" x="0px" y="0px" viewBox="0 0 98 98" enable-background="new 0 0 98 98" xml:space="preserve"><g><path d="M91.2256,1H6.7754C3.5908,1,1,3.5908,1,6.7754v84.4497C1,94.4092,3.5908,97,6.7754,97h84.4502   C94.4092,97,97,94.4092,97,91.2251V6.7754C97,3.5908,94.4092,1,91.2256,1z M95,91.2251C95,93.3067,93.3066,95,91.2256,95H6.7754   C4.6934,95,3,93.3067,3,91.2251V6.7754C3,4.6939,4.6934,3,6.7754,3h84.4502C93.3066,3,95,4.6939,95,6.7754V91.2251z"></path><rect x="72.6426" y="83.1665" width="2.8184" height="2"></rect><polygon points="85.167,74.5127 83.167,74.5127 83.167,83.1665 77.7363,83.1665 77.7363,85.1665 85.167,85.1665  "></polygon><path d="M8.833,8.8335v80.333c16.6452,0,61.6877,0,80.333,0V8.8335C65.9263,8.8335,31.6875,8.8335,8.833,8.8335z M10.833,87.1665   v-33.241l8.0837,15.784l-2.5466,6.7514l1.8711,0.7061l2.4895-6.5999l3.2656-0.3976l2.323,3.8388l1.7109-1.0352l-1.8562-3.0687   l4.4128-0.5372l2.3606,3.7225l-4.8098,4.8156l1.416,1.4131l4.4918-4.4971l3.2318,5.0963l1.6895-1.0713l-1.4497-2.2856h2.5161v-2   h-3.7847l-3.7524-5.9162l2.9463-1.6966l-0.998-1.7334l-3.6748,2.116l-4.4314,0.5393l2.9275-5.3067l-1.752-0.9658l-3.6251,6.5706   l-3.3075,0.4025l-2.1887-4.2729h3.6721v-2h-4.6965l-6.1506-12.0081l3.8865-7.5876l1.626,2.228l-1.6965,3.1025l1.7539,0.96   l1.2454-2.2774l2.2576,3.0933l-1.6748,6.1445l1.9297,0.5254l0.5768-2.1172l3.0853,3.3545l1.4727-1.3535l-3.937-4.2804   l0.5342-1.9606l2.8774-2.9436l3.5801,2.1167l1.0176-1.7217l-4.9297-2.9155l-3.3304,3.4064l-5.3673-7.3544l1.2434-2.4274h4.6965v-2   h-3.6721l2.1887-4.2729l3.3076,0.4026l3.625,6.5705l1.752-0.9658l-2.9272-5.3064l4.4312,0.5394l3.6748,2.1156l0.998-1.7334   l-2.9463-1.6962l3.7526-5.9166h3.7845v-2h-2.5161l1.4497-2.2856l-1.6895-1.0713l-3.2317,5.0964l-4.4919-4.4973l-1.416,1.4131   l4.8101,4.8157l-2.3608,3.7229l-4.413-0.5374l1.8563-3.069l-1.7109-1.0352l-2.323,3.839l-3.2656-0.3977l-2.4895-6.6l-1.8711,0.7061   l2.5466,6.7514l-8.0837,15.784V10.8335h34.4287v76.333H10.833z M47.2617,87.1665v-76.333h3.4766v76.333H47.2617z M87.166,10.8335   V44.112l-9.4658-2.7609l2.0947-14.583l-6.7061,9.9155l-3.2549-7.709l-2.4688,8.4663l-12.877-8.9761l8.6777,13.8311l-8.3232,3.5137   l8.5869,2.5049l-7.7021,13.5283l12.3213-9.1606l4.7998,17.5254l1.627-18.3144l7.4648,1.311l-3.8838-7.0835l9.1094-1.563v42.6089   H52.7383v-76.333H87.166z M79.251,43.8867l-4.2959,0.7368l3.2295,5.8901l-5.5078-0.9673l-0.8359,9.4082l-2.6357-9.624   l-7.0264,5.2241l4.2412-7.4512l-5.6182-1.6387l5.3076-2.2407l-4.707-7.5015l7.1035,4.9507l1.6738-5.7388l2.501,5.9229   l3.8975-5.7632l-1.1045,7.6904L79.251,43.8867z"></path></g></svg>