<svg height='300px' width='300px'  fill="#000000" xmlns="http://www.w3.org/2000/svg" data-name="Layer 1" viewBox="0 0 100 100" x="0px" y="0px"><title>13</title><path d="M77.45,59.2l4.39-4.39L77.6,50.57,66.28,61.88l-8.51-8.51L66.12,45a22.13,22.13,0,0,0,21-5.51c7.26-7.24,8.51-16.81,3.35-25.6a3,3,0,0,0-4.7-.61l-8,7.91a4.58,4.58,0,0,1-3.08-3.09l7.94-7.94a3,3,0,0,0-.67-4.75c-8.2-4.51-18-2.94-24.91,4-6.31,6.29-8.15,15-5,22.8l-7.7,7.7-15-15,1.26-1.26a3,3,0,0,0,0-4.24L17.87,6.7a3,3,0,0,0-4.24,0L6.56,13.77a3,3,0,0,0,0,4.24L19.29,30.74a3,3,0,0,0,4.24,0l1.56-1.56,15,15-9.63,9.63a22.11,22.11,0,0,0-21,5.49C2.23,66.54,1,76.1,6.12,84.88a3,3,0,0,0,4.7.62l8-7.91a4.66,4.66,0,0,1,3.12,3.13L14,88.65a3,3,0,0,0,.67,4.75A20.17,20.17,0,0,0,24.45,96,21.4,21.4,0,0,0,39.58,89.4c6.32-6.29,8.15-15,5-22.8l9-9L62,66.12l-12,12,4.24,4.24,4.8-4.8L74.8,93.32A13,13,0,0,0,93.18,74.94ZM38.82,63.84a3,3,0,0,0-.52,3.55c3.21,5.94,2.08,12.75-3,17.77-4,4-9,5.55-13.84,4.48l5.75-5.75a3,3,0,0,0,.88-2.25v-.1A10.66,10.66,0,0,0,17.86,71.41a3,3,0,0,0-2.2.87l-6,5.92C8.06,73,9.46,67.81,13.74,63.54A16.09,16.09,0,0,1,30.3,60a3,3,0,0,0,3.14-.7L57.78,35a3,3,0,0,0,.52-3.55c-3.21-5.95-2.08-12.75,3-17.77,4-4,9-5.55,13.84-4.48l-5.75,5.75a3.21,3.21,0,0,0-.87,2.34A10.58,10.58,0,0,0,78.7,27.38a3,3,0,0,0,2.19-.87l6-5.93c1.62,5.21.23,10.4-4,14.67h0A16.11,16.11,0,0,1,66.29,38.8a3,3,0,0,0-3.13.7Z"></path></svg>