<svg height='300px' width='300px'  fill="#000000" xmlns="http://www.w3.org/2000/svg" xmlns:xlink="http://www.w3.org/1999/xlink" xml:space="preserve" version="1.1" style="shape-rendering:geometricPrecision;text-rendering:geometricPrecision;image-rendering:optimizeQuality;" viewBox="0 0 236 176" x="0px" y="0px" fill-rule="evenodd" clip-rule="evenodd"><defs><style type="text/css">
   
    .fil0 {fill:#000000}
   
  </style></defs><g><path class="fil0" d="M187 41l-7 23 31 0 8 -23 -32 0zm-65 102c2,3 3,7 3,11 0,12 -10,22 -22,22 -12,0 -22,-10 -22,-22 0,-4 1,-8 2,-11l-4 0c-17,-43 -34,-86 -50,-130l-29 0 0 -13 38 0 11 28 180 0c5,0 8,5 6,9l-26 66c-1,2 -3,4 -6,4l-124 0 9 23 112 0 0 12c2,4 3,8 3,12 0,12 -10,22 -22,22 -12,0 -22,-10 -22,-22 0,-4 1,-8 2,-11l-39 0zm-68 -102l8 23 37 0 -8 -23 -37 0zm13 36l7 17 36 0 -6 -17 -37 0zm39 -36l8 23 52 0 7 -23 -67 0zm99 36l-29 0 -5 17 28 0 6 -17zm-48 17l5 -17 -44 0 6 17 33 0zm24 51c5,0 8,4 8,9 0,4 -3,8 -8,8 -5,0 -8,-4 -8,-8 0,-5 3,-9 8,-9zm-78 0c4,0 8,4 8,9 0,4 -4,8 -8,8 -5,0 -8,-4 -8,-8 0,-5 3,-9 8,-9z"></path></g></svg>