<svg height='300px' width='300px'  fill="#000000" xmlns="http://www.w3.org/2000/svg" xmlns:xlink="http://www.w3.org/1999/xlink" version="1.1" x="0px" y="0px" viewBox="0 0 1024 1024" style="enable-background:new 0 0 1024 1024;" xml:space="preserve"><g><path d="M905,206.3c-5.4,4.6-10.8,9.2-16.2,13.8c-5.9,5-11.8,10-17.6,15c-17.4,14.8-34.7,29.5-52.1,44.3   c-43.6,37.1-87.1,74.1-130.6,111.2c-37.5,31.9-75,63.8-112.5,95.7c-16.6,14.2-33.7,27.9-50,42.5c-2.4,1.2-4.4,2.1-6.1,3   c-0.7,0-1.3,0-2,0c-1.2-0.6-3.3-1.6-6.9-3c-2.5-2.1-5-4.2-7.5-6.2c-10.9-9-21.9-18.1-32.8-27.1c-36.9-30.5-73.7-61-110.6-91.4   c-45.1-37.3-90.1-74.5-135.2-111.8c-23.1-19-46.1-38.1-69.2-57.2c-6-5-12.1-10-18.2-15c-5.7-4.7-11.4-9.4-17-14.1   c3-0.6,6.1-0.9,9.2-0.9c22.4-0.3,44.7,0,67.1,0h692.4c1.7,0,3.5,0,5.2,0C898,205.1,901.6,205.5,905,206.3z"></path><path d="M942,786.4c-8,19.8-26.5,32.4-47.8,32.7c-2,0-4,0-6,0H147.8c-6.1,0-12.2,0.1-18.3,0   c-22.8-0.4-43.4-15.4-49.4-37.7c-1.5-5.8-1.8-11.6-1.8-17.5V260.2c0-3.8,0.1-7.5,0.5-11.2c4.8,4,9.6,8,14.5,12   c5,4.1,10,8.3,15,12.4c20.2,16.7,40.5,33.4,60.7,50.2c45.4,37.5,90.7,75,136.1,112.5c38.4,31.8,76.9,63.5,115.3,95.3   c17.1,14.1,34.1,28.4,51.3,42.4c9,7.4,19,13.7,30.6,16.1c17.3,3.7,34.3,1.5,50-6.7c5.9-3.1,10.9-7.5,16-11.8   c7.7-6.5,15.3-13,23-19.6c33-28.1,65.9-56.1,98.9-84.2c44.3-37.7,88.5-75.3,132.8-113c30.8-26.2,61.7-52.5,92.5-78.7   c2.6-2.2,5.2-4.4,7.8-6.6c2.4-2,4.8-4.1,7.2-6.1c4.7-4,9.4-8,14.1-12c0.2-0.1,0.3-0.3,0.5-0.4c0.2,1.5,0.3,3,0.4,4.6   c0,0.3,0,0.5,0,0.8v494.3C945.5,762.3,946.5,775.1,942,786.4z"></path></g></svg>