<svg height='300px' width='300px'  fill="#000000" xmlns="http://www.w3.org/2000/svg" xmlns:xlink="http://www.w3.org/1999/xlink" version="1.1" x="0px" y="0px" viewBox="0 0 1024 1024" style="enable-background:new 0 0 1024 1024;" xml:space="preserve"><path d="M813.2,849.3c-2.4-36-33.3-59.8-63.6-73.9c-43.2-20.1-89.9-29.4-136.9-35.5c-0.8-0.1-1.6-0.2-2.4-0.3  c12.9-19.6,25.6-39.3,38-59.1c46.5-73.7,91.1-149.9,123.4-231c13.7-34.5,26.4-71.8,26.5-109.3V340c-0.1-50.8-13.6-101.2-39.4-145  c-25-42.4-61-78.2-103.5-102.8c-44-25.5-94.7-38.8-145.5-38.4c-50.7,0.4-101.1,14.4-144.6,40.4c-42,25.1-77.4,61.2-101.8,103.6  c-24.9,43.5-38.6,94.2-37.7,144.4c0.7,40.7,15.4,81,30.9,118.1c20.3,48.6,45,95.4,71.2,141c26,45.1,53.7,89.2,82.3,132.6  c1.2,1.8,2.4,3.6,3.5,5.3c-36.9,4.3-73.7,11.3-108.7,23.5c-17.8,6.3-35.9,13.6-51.7,24.1c-13.5,8.9-27.2,20.3-34.8,35  c-7.6,14.8-10.5,32.2-5,48.2c5,14.6,14.3,27,26.3,36.6c29.7,23.8,67,36.5,103.6,45.2c48.8,11.7,99.5,16.8,149.7,18  c52.4,1.2,105.1-2.4,156.8-11.6c38.5-6.8,78-17.1,112.3-36.5C788.3,907.1,815.3,882,813.2,849.3z M438.2,277.4  c25-30.2,69.1-42.1,105.9-28.7c38.4,14,64.3,50.2,64.7,91.1v0.4c0,0.3,0,0.5,0,0.8c-0.8,44.5-32.7,85.2-77,93.9  c-40.1,7.9-81.4-9.7-102.8-44.8C407.4,354.6,412.1,309.1,438.2,277.4z M754.8,854.8c-0.4-0.8-0.8-1.7-1.2-2.5  c0.2,1.2,0.3,2.4,0.5,3.6c-0.1-1-0.3-2-0.6-3c0,0.1-0.1,0.1-0.1,0.2c-0.1,0.8-0.2,1.6-0.3,2.4c0.1-0.7,0.1-1.5,0.2-2.2  c-0.2,0.3-0.4,0.6-0.7,0.9c-0.3,0.6-0.5,1.2-0.7,1.7c0.2-0.5,0.4-1,0.6-1.6c-1.3,1.8-3.2,4.1-2.5,2.9c0.4-0.7,0.9-1.3,1.4-2  c-1.5,1.6-3,3.2-4.6,4.7c-1,0.9-2.4,2-3.5,2.9c-8.8,6.1-18.2,11.1-28,15.5c1.1-0.5,2.2-0.9,3.3-1.4c-2.4,1-4.8,2-7.2,3  c1.3-0.5,2.5-1.1,3.7-1.6c-33,13.3-68.3,20.7-103.5,25.6c-65.9,8.4-133.3,8.4-199.2,0c-35.1-4.9-70.3-12.3-103.3-25.5  c-10.4-4.6-20.2-10-29.6-16.4c-0.8-0.7-1.6-1.4-2.3-2.1c-1.6-1.5-3.2-3.1-4.6-4.7c0.5,0.8,1.2,1.5,1.6,2.3c0.2,0.3-1.6-1.9-2.8-3.4  c0.2,0.6,0.4,1.2,0.7,1.8c-0.3-0.6-0.5-1.3-0.8-1.9c-0.2-0.3-0.4-0.6-0.6-0.8c0,0.8,0.1,1.5,0.2,2.3c-0.1-0.8-0.2-1.7-0.3-2.5  c0-0.1-0.1-0.1-0.1-0.2c-0.3,1-0.4,2-0.6,3c0.2-1.2,0.3-2.4,0.5-3.7c-0.4,0.8-0.8,1.7-1.2,2.5c0.4-1,0.8-1.9,1.2-2.9  c-0.4-1-0.8-2-1.3-3c0.4,0.9,0.8,1.8,1.2,2.6c-0.2-1.3-0.3-2.6-0.5-3.9c0.2,1.1,0.3,2.2,0.6,3.2c0,0,0.1-0.1,0.1-0.2l0.4-2.7  c-0.1,0.8-0.2,1.6-0.2,2.4c0.2-0.3,0.4-0.6,0.7-1c0.3-0.6,0.5-1.2,0.8-1.8c-0.2,0.5-0.4,1.1-0.6,1.6c1.4-1.8,3.3-4.2,2.5-2.9  c-0.4,0.7-1,1.4-1.4,2.1c1.5-1.6,3-3.2,4.6-4.7c1-0.9,2.7-2.2,4-3.2c-0.7,0.5-1.4,0.9-2.1,1.4c1.7-1.2,2.7-1.9,3.2-2.2  c-0.3,0.2-0.6,0.5-1.1,0.8c8.9-5.9,18-10.9,27.8-15.3c32.9-13.2,68.1-20.6,103.2-25.5c-1.5,0.2-3,0.4-4.5,0.6c2.7-0.4,5.3-0.7,8-1.1  c-1.1,0.2-2.3,0.3-3.4,0.5c12.4-1.6,24.8-2.8,37.3-3.8c0.8-0.1,1.5-0.1,2.3-0.2c13.6,19.7,27.5,39.2,41.6,58.5  c1.8,2.5,3.7,5,5.5,7.5c7.1,9.5,18.8,9.5,25.9,0c16.2-21.7,31.9-43.7,47.4-66c0.7,0.1,1.3,0.2,2,0.2c12.5,1,24.9,2.2,37.3,3.8  c-1.1-0.2-2.3-0.3-3.4-0.5c2.6,0.4,5.3,0.7,8,1.1c-1.5-0.2-3-0.4-4.5-0.6c35.1,4.9,70.4,12.3,103.4,25.6c5.2,2.3,10.3,4.8,15.3,7.5  c2.8,1.5,5.5,3.1,8.2,4.8c2.1,1.3,4.2,3.3,6.5,4.6c0.4,0.4,0.9,0.8,1.3,1.2c1.7,1.6,3.3,3.2,4.9,4.9c-0.5-0.8-1.2-1.5-1.6-2.3  c-0.1-0.3,1.6,1.8,2.8,3.3c-0.2-0.6-0.4-1.2-0.7-1.8c0.3,0.7,0.6,1.3,0.8,2c0.3,0.3,0.5,0.6,0.6,0.8c0-0.8-0.1-1.7-0.2-2.5  c0.1,0.9,0.2,1.8,0.4,2.7c0.1,0.2,0.1,0.3,0,0.1c0,0.1,0,0.2,0,0.3c0.3-1.1,0.5-2.3,0.7-3.5c-0.2,1.3-0.3,2.6-0.5,3.9  c0.4-0.9,0.9-1.7,1.2-2.6c-0.4,1-0.8,2-1.3,3C754,852.8,754.4,853.8,754.8,854.8z"></path></svg>