<svg height='300px' width='300px'  fill="#000000" xmlns="http://www.w3.org/2000/svg" xmlns:xlink="http://www.w3.org/1999/xlink" version="1.1" x="0px" y="0px" viewBox="0 0 69 69" style="enable-background:new 0 0 69 69;" xml:space="preserve"><g><path d="M1.28027,63.13354c0,0.55225,0.44727,1,1,1h64.43945c0.55273,0,1-0.44775,1-1s-0.44727-1-1-1h-5.2287   c0.42004-0.62042,0.6662-1.36823,0.6662-2.17285c0.00078-12.70993,0.00185-30.30093,0.00293-47.87402   c0-2.20557-1.79004-4-3.99023-4h-5.2832V5.86646c0-0.55225-0.44727-1-1-1s-1,0.44775-1,1v2.22021h-6.81055V5.86646   c0-0.55225-0.44727-1-1-1s-1,0.44775-1,1v2.22021h-6.81152V5.86646c0-0.55225-0.44727-1-1-1s-1,0.44775-1,1v2.22021H26.4541   V5.86646c0-0.55225-0.44727-1-1-1s-1,0.44775-1,1v2.22021h-6.81152V5.86646c0-0.55225-0.44727-1-1-1s-1,0.44775-1,1v2.22021   h-5.27246c-2.20605,0-4,1.79443-4,4c-0.00061,9.92121-0.0021,34.14853-0.00293,47.75391c0,0.85413,0.27411,1.64246,0.73193,2.29297   H2.28027C1.72754,62.13354,1.28027,62.5813,1.28027,63.13354z M8.36719,22.93677h51.79004v37.02393   c0,1.03662-0.83887,1.87988-1.87012,1.87988H10.36719c-1.10254,0-2-0.89697-2-2V22.93677z M10.37012,10.08667h5.27246v2.49072   c0,0.55225,0.44727,1,1,1s1-0.44775,1-1v-2.49072h6.81152v2.49072c0,0.55225,0.44727,1,1,1s1-0.44775,1-1v-2.49072h6.81055v2.49072   c0,0.55225,0.44727,1,1,1s1-0.44775,1-1v-2.49072h6.81152v2.49072c0,0.55225,0.44727,1,1,1s1-0.44775,1-1v-2.49072h6.81055v2.49072   c0,0.55225,0.44727,1,1,1s1-0.44775,1-1v-2.49072h5.2832c1.09766,0,1.99023,0.89697,1.99023,2v8.74414H8.37012v-8.74414   C8.37012,10.98364,9.26758,10.08667,10.37012,10.08667z"></path><path d="M24.27344,35.55151h7.60059c0.55273,0,1-0.44775,1-1v-6.92383c0-0.55225-0.44727-1-1-1h-7.60059c-0.55273,0-1,0.44775-1,1   v6.92383C23.27344,35.10376,23.7207,35.55151,24.27344,35.55151z M25.27344,28.62769h5.60059v4.92383h-5.60059V28.62769z"></path><path d="M36.66309,35.55151h7.60156c0.55273,0,1-0.44775,1-1v-6.92383c0-0.55225-0.44727-1-1-1h-7.60156c-0.55273,0-1,0.44775-1,1   v6.92383C35.66309,35.10376,36.11035,35.55151,36.66309,35.55151z M37.66309,28.62769h5.60156v4.92383h-5.60156V28.62769z"></path><path d="M49.05371,35.55151h7.60059c0.55273,0,1-0.44775,1-1v-6.92383c0-0.55225-0.44727-1-1-1h-7.60059c-0.55273,0-1,0.44775-1,1   v6.92383C48.05371,35.10376,48.50098,35.55151,49.05371,35.55151z M50.05371,28.62769h5.60059v4.92383h-5.60059V28.62769z"></path><path d="M11.88281,46.7981h7.60156c0.55273,0,1-0.44775,1-1v-6.92383c0-0.55225-0.44727-1-1-1h-7.60156c-0.55273,0-1,0.44775-1,1   v6.92383C10.88281,46.35034,11.33008,46.7981,11.88281,46.7981z M12.88281,39.87427h5.60156v4.92383h-5.60156V39.87427z"></path><path d="M24.27344,46.7981h7.60059c0.55273,0,1-0.44775,1-1v-6.92383c0-0.55225-0.44727-1-1-1h-7.60059c-0.55273,0-1,0.44775-1,1   v6.92383C23.27344,46.35034,23.7207,46.7981,24.27344,46.7981z M25.27344,39.87427h5.60059v4.92383h-5.60059V39.87427z"></path><path d="M36.66309,46.7981h7.60156c0.55273,0,1-0.44775,1-1v-6.92383c0-0.55225-0.44727-1-1-1h-7.60156c-0.55273,0-1,0.44775-1,1   v6.92383C35.66309,46.35034,36.11035,46.7981,36.66309,46.7981z M37.66309,39.87427h5.60156v4.92383h-5.60156V39.87427z"></path><path d="M49.05371,46.7981h7.60059c0.55273,0,1-0.44775,1-1v-6.92383c0-0.55225-0.44727-1-1-1h-7.60059c-0.55273,0-1,0.44775-1,1   v6.92383C48.05371,46.35034,48.50098,46.7981,49.05371,46.7981z M50.05371,39.87427h5.60059v4.92383h-5.60059V39.87427z"></path><path d="M11.88281,58.04419h7.60156c0.55273,0,1-0.44775,1-1v-6.92334c0-0.55225-0.44727-1-1-1h-7.60156c-0.55273,0-1,0.44775-1,1   v6.92334C10.88281,57.59644,11.33008,58.04419,11.88281,58.04419z M12.88281,51.12085h5.60156v4.92334h-5.60156V51.12085z"></path><path d="M24.27344,58.04419h7.60059c0.55273,0,1-0.44775,1-1v-6.92334c0-0.55225-0.44727-1-1-1h-7.60059c-0.55273,0-1,0.44775-1,1   v6.92334C23.27344,57.59644,23.7207,58.04419,24.27344,58.04419z M25.27344,51.12085h5.60059v4.92334h-5.60059V51.12085z"></path></g></svg>