<svg height='300px' width='300px'  fill="#000000" xmlns="http://www.w3.org/2000/svg" xmlns:xlink="http://www.w3.org/1999/xlink" version="1.1" x="0px" y="0px" viewBox="0 0 100 100" style="enable-background:new 0 0 100 100;" xml:space="preserve"><g><polygon points="53.4,33.8 53.4,52 60.9,57.5 63.2,54.3 57.4,50 57.4,33.8  "></polygon><path d="M46.7,38.2c0-8.9-7.3-16.2-16.2-16.2c-8.9,0-16.2,7.3-16.2,16.2c0,8.9,7.3,16.2,16.2,16.2C39.4,54.3,46.7,47.1,46.7,38.2z    M28.5,28.8h4v12.1h-4V28.8z M30.1,48.1c-0.1,0-0.2-0.1-0.4-0.1c-0.1,0-0.2-0.1-0.4-0.2c-0.1-0.1-0.2-0.2-0.3-0.2   c-0.1-0.1-0.2-0.2-0.2-0.3c-0.1-0.1-0.1-0.2-0.2-0.3c-0.1-0.1-0.1-0.2-0.1-0.4c0-0.1,0-0.3,0-0.4c0-0.1,0-0.3,0-0.4   c0-0.1,0.1-0.2,0.1-0.4c0-0.1,0.1-0.2,0.2-0.4c0.1-0.1,0.1-0.2,0.2-0.3c0.1-0.1,0.2-0.2,0.3-0.2c0.1-0.1,0.2-0.1,0.4-0.2   c0.1,0,0.2-0.1,0.4-0.1c0.3,0,0.5,0,0.8,0c0.1,0,0.3,0.1,0.4,0.1c0.1,0.1,0.2,0.1,0.3,0.2c0.1,0.1,0.2,0.2,0.3,0.2   c0.1,0.1,0.2,0.2,0.2,0.3c0.1,0.1,0.1,0.2,0.2,0.4c0.1,0.1,0.1,0.2,0.1,0.4c0,0.1,0,0.3,0,0.4c0,0.1,0,0.3,0,0.4   c0,0.1-0.1,0.2-0.1,0.4c0,0.1-0.1,0.2-0.2,0.3c-0.1,0.1-0.1,0.2-0.2,0.3c-0.1,0.1-0.2,0.2-0.3,0.2c-0.1,0.1-0.2,0.1-0.3,0.2   c-0.1,0.1-0.2,0.1-0.4,0.1c-0.1,0-0.3,0-0.4,0C30.4,48.2,30.2,48.2,30.1,48.1z"></path><path d="M55.4,21c-3.9,0-7.6,0.8-10.9,2.2c1.1,0.9,2.1,2,3,3.1c2.5-0.8,5.2-1.3,7.9-1.3c13.7,0,24.9,11.2,24.9,24.9   S69.1,74.7,55.4,74.7c-9.8,0-18.2-5.7-22.3-13.9c-0.8,0.1-1.7,0.2-2.6,0.2c-0.6,0-1.2,0-1.8-0.1c4.4,10.4,14.7,17.8,26.7,17.8   c15.9,0,28.9-13,28.9-28.9S71.3,21,55.4,21z"></path></g></svg>