<svg height='300px' width='300px'  fill="#000000" xmlns="http://www.w3.org/2000/svg" viewBox="0 0 16 18" x="0px" y="0px"><path fill-rule="evenodd" d="M8.01174768,6.27827337 L8.01174768,4.70127337 C5.48774768,4.69727337 3.23374768,6.51027337 2.75774768,9.10427337 C2.28674768,11.6672734 3.69274768,14.1962734 6.10074768,15.1182734 C6.78974768,15.3822734 7.13574768,16.1582734 6.87474768,16.8542734 C6.64274768,17.4722734 6.00774768,17.8172734 5.38674768,17.7012734 C5.30874768,17.6872734 5.23074768,17.6652734 5.15474768,17.6362734 C1.53974768,16.2542734 -0.571252324,12.4592734 0.135747676,8.61527337 C0.849747676,4.72627337 4.22874768,2.01727337 8.01174768,2.02227337 L8.01174768,0.715273368 C8.01174768,0.088273368 8.80074768,-0.234726632 9.27874768,0.198273368 L12.3527477,2.97927337 C12.6637477,3.26127337 12.6637477,3.73327337 12.3527477,4.01527337 L9.27874768,6.79627337 C8.80074768,7.22827337 8.01174768,6.90627337 8.01174768,6.27827337 M9.77474768,15.1612734 C9.57674768,15.2332734 9.37274768,15.2932734 9.16674768,15.3392734 C8.44774768,15.5002734 7.99274768,16.2192734 8.15174768,16.9452734 C8.27074768,17.4892734 8.70074768,17.8822734 9.21074768,17.9782734 C9.38174768,18.0092734 9.56174768,18.0082734 9.74174768,17.9682734 C10.0557477,17.8972734 10.3647477,17.8072734 10.6667477,17.6992734 C11.3597477,17.4502734 11.7237477,16.6792734 11.4777477,15.9792734 C11.2307477,15.2782734 10.4667477,14.9122734 9.77474768,15.1612734 M12.4257477,13.0902734 C12.3687477,13.1762734 12.3097477,13.2602734 12.2467477,13.3422734 C11.7977477,13.9312734 11.9057477,14.7762734 12.4897477,15.2302734 C12.6637477,15.3642734 12.8577477,15.4492734 13.0597477,15.4862734 C13.5357477,15.5752734 14.0437477,15.3982734 14.3607477,14.9832734 C14.4557477,14.8572734 14.5487477,14.7272734 14.6377477,14.5942734 C15.0487477,13.9772734 14.8877477,13.1412734 14.2777477,12.7252734 C13.6667477,12.3122734 12.8377477,12.4732734 12.4257477,13.0902734 M14.7017477,8.96027337 C13.9657477,8.94027337 13.3517477,9.55327337 13.3327477,10.2972734 C13.3147477,10.9662734 13.7847477,11.5242734 14.4167477,11.6422734 C14.4847477,11.6552734 14.5557477,11.6632734 14.6267477,11.6642734 C15.3617477,11.6862734 15.9757477,11.0892734 15.9987477,10.3462734 C15.9987477,10.3442734 15.9997477,10.3172734 15.9997477,10.3152734 C16.0197477,9.57127337 15.4327477,8.97327337 14.7017477,8.96027337"></path></svg>