<svg height='300px' width='300px'  fill="#000000" xmlns="http://www.w3.org/2000/svg" data-name="Layer 1" viewBox="0 0 24 24" x="0px" y="0px"><title>35-settings</title><path d="M22.16,14.4l-1.316-.759a8.72,8.72,0,0,0,0-3.284L22.16,9.6a1,1,0,0,0,.366-1.367l-2-3.464A1,1,0,0,0,19.16,4.4l-1.315.76A9,9,0,0,0,15,3.522V2a1,1,0,0,0-1-1H10A1,1,0,0,0,9,2V3.522A9,9,0,0,0,6.155,5.161L4.84,4.4a1,1,0,0,0-1.366.367l-2,3.464A1,1,0,0,0,1.84,9.6l1.316.759a8.72,8.72,0,0,0,0,3.284L1.84,14.4a1,1,0,0,0-.366,1.367l2,3.464a1,1,0,0,0,.607.466,1.013,1.013,0,0,0,.759-.1l1.315-.76A9,9,0,0,0,9,20.478V22a1,1,0,0,0,1,1h4a1,1,0,0,0,1-1V20.478a9,9,0,0,0,2.845-1.639l1.315.76a1.011,1.011,0,0,0,.759.1,1,1,0,0,0,.607-.466l2-3.464A1,1,0,0,0,22.16,14.4ZM12,17a5,5,0,1,1,5-5A5.006,5.006,0,0,1,12,17Z"></path></svg>